<?xml version="1.0" encoding="utf-8"?>
<svg xmlns="http://www.w3.org/2000/svg" xmlns:xlink="http://www.w3.org/1999/xlink" width="600" height="400" viewBox="0 0 2400 1600">
<defs>
  <clipPath id="clip400">
    <rect x="0" y="0" width="2400" height="1600"/>
  </clipPath>
</defs>
<path clip-path="url(#clip400)" d="M0 1600 L2400 1600 L2400 0 L0 0  Z" fill="#ffffff" fill-rule="evenodd" fill-opacity="1"/>
<defs>
  <clipPath id="clip401">
    <rect x="480" y="0" width="1681" height="1600"/>
  </clipPath>
</defs>
<path clip-path="url(#clip400)" d="M264.287 1423.18 L2352.76 1423.18 L2352.76 123.472 L264.287 123.472  Z" fill="#ffffff" fill-rule="evenodd" fill-opacity="1"/>
<defs>
  <clipPath id="clip402">
    <rect x="264" y="123" width="2089" height="1301"/>
  </clipPath>
</defs>
<polyline clip-path="url(#clip402)" style="stroke:#000000; stroke-linecap:round; stroke-linejoin:round; stroke-width:2; stroke-opacity:0.1; fill:none" points="323.395,1423.18 323.395,123.472 "/>
<polyline clip-path="url(#clip402)" style="stroke:#000000; stroke-linecap:round; stroke-linejoin:round; stroke-width:2; stroke-opacity:0.1; fill:none" points="815.958,1423.18 815.958,123.472 "/>
<polyline clip-path="url(#clip402)" style="stroke:#000000; stroke-linecap:round; stroke-linejoin:round; stroke-width:2; stroke-opacity:0.1; fill:none" points="1308.52,1423.18 1308.52,123.472 "/>
<polyline clip-path="url(#clip402)" style="stroke:#000000; stroke-linecap:round; stroke-linejoin:round; stroke-width:2; stroke-opacity:0.1; fill:none" points="1801.08,1423.18 1801.08,123.472 "/>
<polyline clip-path="url(#clip402)" style="stroke:#000000; stroke-linecap:round; stroke-linejoin:round; stroke-width:2; stroke-opacity:0.1; fill:none" points="2293.65,1423.18 2293.65,123.472 "/>
<polyline clip-path="url(#clip402)" style="stroke:#000000; stroke-linecap:round; stroke-linejoin:round; stroke-width:2; stroke-opacity:0.1; fill:none" points="264.287,1202.88 2352.76,1202.88 "/>
<polyline clip-path="url(#clip402)" style="stroke:#000000; stroke-linecap:round; stroke-linejoin:round; stroke-width:2; stroke-opacity:0.1; fill:none" points="264.287,962.277 2352.76,962.277 "/>
<polyline clip-path="url(#clip402)" style="stroke:#000000; stroke-linecap:round; stroke-linejoin:round; stroke-width:2; stroke-opacity:0.1; fill:none" points="264.287,721.671 2352.76,721.671 "/>
<polyline clip-path="url(#clip402)" style="stroke:#000000; stroke-linecap:round; stroke-linejoin:round; stroke-width:2; stroke-opacity:0.1; fill:none" points="264.287,481.064 2352.76,481.064 "/>
<polyline clip-path="url(#clip402)" style="stroke:#000000; stroke-linecap:round; stroke-linejoin:round; stroke-width:2; stroke-opacity:0.1; fill:none" points="264.287,240.458 2352.76,240.458 "/>
<polyline clip-path="url(#clip400)" style="stroke:#000000; stroke-linecap:round; stroke-linejoin:round; stroke-width:4; stroke-opacity:1; fill:none" points="264.287,1423.18 2352.76,1423.18 "/>
<polyline clip-path="url(#clip400)" style="stroke:#000000; stroke-linecap:round; stroke-linejoin:round; stroke-width:4; stroke-opacity:1; fill:none" points="323.395,1423.18 323.395,1404.28 "/>
<polyline clip-path="url(#clip400)" style="stroke:#000000; stroke-linecap:round; stroke-linejoin:round; stroke-width:4; stroke-opacity:1; fill:none" points="815.958,1423.18 815.958,1404.28 "/>
<polyline clip-path="url(#clip400)" style="stroke:#000000; stroke-linecap:round; stroke-linejoin:round; stroke-width:4; stroke-opacity:1; fill:none" points="1308.52,1423.18 1308.52,1404.28 "/>
<polyline clip-path="url(#clip400)" style="stroke:#000000; stroke-linecap:round; stroke-linejoin:round; stroke-width:4; stroke-opacity:1; fill:none" points="1801.08,1423.18 1801.08,1404.28 "/>
<polyline clip-path="url(#clip400)" style="stroke:#000000; stroke-linecap:round; stroke-linejoin:round; stroke-width:4; stroke-opacity:1; fill:none" points="2293.65,1423.18 2293.65,1404.28 "/>
<path clip-path="url(#clip400)" d="M272.006 1481.64 L288.326 1481.64 L288.326 1485.58 L266.381 1485.58 L266.381 1481.64 Q269.043 1478.89 273.627 1474.26 Q278.233 1469.61 279.414 1468.27 Q281.659 1465.74 282.539 1464.01 Q283.441 1462.25 283.441 1460.56 Q283.441 1457.8 281.497 1456.07 Q279.576 1454.33 276.474 1454.33 Q274.275 1454.33 271.821 1455.09 Q269.391 1455.86 266.613 1457.41 L266.613 1452.69 Q269.437 1451.55 271.891 1450.97 Q274.344 1450.39 276.381 1450.39 Q281.752 1450.39 284.946 1453.08 Q288.14 1455.77 288.14 1460.26 Q288.14 1462.39 287.33 1464.31 Q286.543 1466.2 284.437 1468.8 Q283.858 1469.47 280.756 1472.69 Q277.654 1475.88 272.006 1481.64 Z" fill="#000000" fill-rule="nonzero" fill-opacity="1" /><path clip-path="url(#clip400)" d="M308.14 1454.1 Q304.529 1454.1 302.701 1457.66 Q300.895 1461.2 300.895 1468.33 Q300.895 1475.44 302.701 1479.01 Q304.529 1482.55 308.14 1482.55 Q311.775 1482.55 313.58 1479.01 Q315.409 1475.44 315.409 1468.33 Q315.409 1461.2 313.58 1457.66 Q311.775 1454.1 308.14 1454.1 M308.14 1450.39 Q313.951 1450.39 317.006 1455 Q320.085 1459.58 320.085 1468.33 Q320.085 1477.06 317.006 1481.67 Q313.951 1486.25 308.14 1486.25 Q302.33 1486.25 299.252 1481.67 Q296.196 1477.06 296.196 1468.33 Q296.196 1459.58 299.252 1455 Q302.33 1450.39 308.14 1450.39 Z" fill="#000000" fill-rule="nonzero" fill-opacity="1" /><path clip-path="url(#clip400)" d="M338.302 1454.1 Q334.691 1454.1 332.862 1457.66 Q331.057 1461.2 331.057 1468.33 Q331.057 1475.44 332.862 1479.01 Q334.691 1482.55 338.302 1482.55 Q341.936 1482.55 343.742 1479.01 Q345.571 1475.44 345.571 1468.33 Q345.571 1461.2 343.742 1457.66 Q341.936 1454.1 338.302 1454.1 M338.302 1450.39 Q344.112 1450.39 347.168 1455 Q350.247 1459.58 350.247 1468.33 Q350.247 1477.06 347.168 1481.67 Q344.112 1486.25 338.302 1486.25 Q332.492 1486.25 329.413 1481.67 Q326.358 1477.06 326.358 1468.33 Q326.358 1459.58 329.413 1455 Q332.492 1450.39 338.302 1450.39 Z" fill="#000000" fill-rule="nonzero" fill-opacity="1" /><path clip-path="url(#clip400)" d="M368.464 1454.1 Q364.853 1454.1 363.024 1457.66 Q361.219 1461.2 361.219 1468.33 Q361.219 1475.44 363.024 1479.01 Q364.853 1482.55 368.464 1482.55 Q372.098 1482.55 373.904 1479.01 Q375.733 1475.44 375.733 1468.33 Q375.733 1461.2 373.904 1457.66 Q372.098 1454.1 368.464 1454.1 M368.464 1450.39 Q374.274 1450.39 377.33 1455 Q380.409 1459.58 380.409 1468.33 Q380.409 1477.06 377.33 1481.67 Q374.274 1486.25 368.464 1486.25 Q362.654 1486.25 359.575 1481.67 Q356.52 1477.06 356.52 1468.33 Q356.52 1459.58 359.575 1455 Q362.654 1450.39 368.464 1450.39 Z" fill="#000000" fill-rule="nonzero" fill-opacity="1" /><path clip-path="url(#clip400)" d="M765.067 1481.64 L781.387 1481.64 L781.387 1485.58 L759.442 1485.58 L759.442 1481.64 Q762.104 1478.89 766.688 1474.26 Q771.294 1469.61 772.475 1468.27 Q774.72 1465.74 775.6 1464.01 Q776.502 1462.25 776.502 1460.56 Q776.502 1457.8 774.558 1456.07 Q772.637 1454.33 769.535 1454.33 Q767.336 1454.33 764.882 1455.09 Q762.452 1455.86 759.674 1457.41 L759.674 1452.69 Q762.498 1451.55 764.952 1450.97 Q767.405 1450.39 769.442 1450.39 Q774.813 1450.39 778.007 1453.08 Q781.202 1455.77 781.202 1460.26 Q781.202 1462.39 780.391 1464.31 Q779.604 1466.2 777.498 1468.8 Q776.919 1469.47 773.817 1472.69 Q770.715 1475.88 765.067 1481.64 Z" fill="#000000" fill-rule="nonzero" fill-opacity="1" /><path clip-path="url(#clip400)" d="M801.201 1454.1 Q797.59 1454.1 795.762 1457.66 Q793.956 1461.2 793.956 1468.33 Q793.956 1475.44 795.762 1479.01 Q797.59 1482.55 801.201 1482.55 Q804.836 1482.55 806.641 1479.01 Q808.47 1475.44 808.47 1468.33 Q808.47 1461.2 806.641 1457.66 Q804.836 1454.1 801.201 1454.1 M801.201 1450.39 Q807.012 1450.39 810.067 1455 Q813.146 1459.58 813.146 1468.33 Q813.146 1477.06 810.067 1481.67 Q807.012 1486.25 801.201 1486.25 Q795.391 1486.25 792.313 1481.67 Q789.257 1477.06 789.257 1468.33 Q789.257 1459.58 792.313 1455 Q795.391 1450.39 801.201 1450.39 Z" fill="#000000" fill-rule="nonzero" fill-opacity="1" /><path clip-path="url(#clip400)" d="M831.363 1454.1 Q827.752 1454.1 825.923 1457.66 Q824.118 1461.2 824.118 1468.33 Q824.118 1475.44 825.923 1479.01 Q827.752 1482.55 831.363 1482.55 Q834.998 1482.55 836.803 1479.01 Q838.632 1475.44 838.632 1468.33 Q838.632 1461.2 836.803 1457.66 Q834.998 1454.1 831.363 1454.1 M831.363 1450.39 Q837.173 1450.39 840.229 1455 Q843.308 1459.58 843.308 1468.33 Q843.308 1477.06 840.229 1481.67 Q837.173 1486.25 831.363 1486.25 Q825.553 1486.25 822.474 1481.67 Q819.419 1477.06 819.419 1468.33 Q819.419 1459.58 822.474 1455 Q825.553 1450.39 831.363 1450.39 Z" fill="#000000" fill-rule="nonzero" fill-opacity="1" /><path clip-path="url(#clip400)" d="M851.572 1451.02 L869.928 1451.02 L869.928 1454.96 L855.854 1454.96 L855.854 1463.43 Q856.872 1463.08 857.891 1462.92 Q858.909 1462.73 859.928 1462.73 Q865.715 1462.73 869.095 1465.9 Q872.474 1469.08 872.474 1474.49 Q872.474 1480.07 869.002 1483.17 Q865.53 1486.25 859.21 1486.25 Q857.034 1486.25 854.766 1485.88 Q852.521 1485.51 850.113 1484.77 L850.113 1480.07 Q852.197 1481.2 854.419 1481.76 Q856.641 1482.32 859.118 1482.32 Q863.122 1482.32 865.46 1480.21 Q867.798 1478.1 867.798 1474.49 Q867.798 1470.88 865.46 1468.77 Q863.122 1466.67 859.118 1466.67 Q857.243 1466.67 855.368 1467.08 Q853.516 1467.5 851.572 1468.38 L851.572 1451.02 Z" fill="#000000" fill-rule="nonzero" fill-opacity="1" /><path clip-path="url(#clip400)" d="M1257.13 1481.64 L1273.45 1481.64 L1273.45 1485.58 L1251.51 1485.58 L1251.51 1481.64 Q1254.17 1478.89 1258.75 1474.26 Q1263.36 1469.61 1264.54 1468.27 Q1266.79 1465.74 1267.67 1464.01 Q1268.57 1462.25 1268.57 1460.56 Q1268.57 1457.8 1266.62 1456.07 Q1264.7 1454.33 1261.6 1454.33 Q1259.4 1454.33 1256.95 1455.09 Q1254.52 1455.86 1251.74 1457.41 L1251.74 1452.69 Q1254.56 1451.55 1257.02 1450.97 Q1259.47 1450.39 1261.51 1450.39 Q1266.88 1450.39 1270.07 1453.08 Q1273.27 1455.77 1273.27 1460.26 Q1273.27 1462.39 1272.46 1464.31 Q1271.67 1466.2 1269.56 1468.8 Q1268.98 1469.47 1265.88 1472.69 Q1262.78 1475.88 1257.13 1481.64 Z" fill="#000000" fill-rule="nonzero" fill-opacity="1" /><path clip-path="url(#clip400)" d="M1293.27 1454.1 Q1289.66 1454.1 1287.83 1457.66 Q1286.02 1461.2 1286.02 1468.33 Q1286.02 1475.44 1287.83 1479.01 Q1289.66 1482.55 1293.27 1482.55 Q1296.9 1482.55 1298.71 1479.01 Q1300.54 1475.44 1300.54 1468.33 Q1300.54 1461.2 1298.71 1457.66 Q1296.9 1454.1 1293.27 1454.1 M1293.27 1450.39 Q1299.08 1450.39 1302.13 1455 Q1305.21 1459.58 1305.21 1468.33 Q1305.21 1477.06 1302.13 1481.67 Q1299.08 1486.25 1293.27 1486.25 Q1287.46 1486.25 1284.38 1481.67 Q1281.32 1477.06 1281.32 1468.33 Q1281.32 1459.58 1284.38 1455 Q1287.46 1450.39 1293.27 1450.39 Z" fill="#000000" fill-rule="nonzero" fill-opacity="1" /><path clip-path="url(#clip400)" d="M1314.24 1481.64 L1321.88 1481.64 L1321.88 1455.28 L1313.57 1456.95 L1313.57 1452.69 L1321.83 1451.02 L1326.51 1451.02 L1326.51 1481.64 L1334.15 1481.64 L1334.15 1485.58 L1314.24 1485.58 L1314.24 1481.64 Z" fill="#000000" fill-rule="nonzero" fill-opacity="1" /><path clip-path="url(#clip400)" d="M1353.59 1454.1 Q1349.98 1454.1 1348.15 1457.66 Q1346.35 1461.2 1346.35 1468.33 Q1346.35 1475.44 1348.15 1479.01 Q1349.98 1482.55 1353.59 1482.55 Q1357.23 1482.55 1359.03 1479.01 Q1360.86 1475.44 1360.86 1468.33 Q1360.86 1461.2 1359.03 1457.66 Q1357.23 1454.1 1353.59 1454.1 M1353.59 1450.39 Q1359.4 1450.39 1362.46 1455 Q1365.54 1459.58 1365.54 1468.33 Q1365.54 1477.06 1362.46 1481.67 Q1359.4 1486.25 1353.59 1486.25 Q1347.78 1486.25 1344.7 1481.67 Q1341.65 1477.06 1341.65 1468.33 Q1341.65 1459.58 1344.7 1455 Q1347.78 1450.39 1353.59 1450.39 Z" fill="#000000" fill-rule="nonzero" fill-opacity="1" /><path clip-path="url(#clip400)" d="M1750.19 1481.64 L1766.51 1481.64 L1766.51 1485.58 L1744.57 1485.58 L1744.57 1481.64 Q1747.23 1478.89 1751.81 1474.26 Q1756.42 1469.61 1757.6 1468.27 Q1759.85 1465.74 1760.73 1464.01 Q1761.63 1462.25 1761.63 1460.56 Q1761.63 1457.8 1759.68 1456.07 Q1757.76 1454.33 1754.66 1454.33 Q1752.46 1454.33 1750.01 1455.09 Q1747.58 1455.86 1744.8 1457.41 L1744.8 1452.69 Q1747.62 1451.55 1750.08 1450.97 Q1752.53 1450.39 1754.57 1450.39 Q1759.94 1450.39 1763.13 1453.08 Q1766.33 1455.77 1766.33 1460.26 Q1766.33 1462.39 1765.52 1464.31 Q1764.73 1466.2 1762.62 1468.8 Q1762.05 1469.47 1758.94 1472.69 Q1755.84 1475.88 1750.19 1481.64 Z" fill="#000000" fill-rule="nonzero" fill-opacity="1" /><path clip-path="url(#clip400)" d="M1786.33 1454.1 Q1782.72 1454.1 1780.89 1457.66 Q1779.08 1461.2 1779.08 1468.33 Q1779.08 1475.44 1780.89 1479.01 Q1782.72 1482.55 1786.33 1482.55 Q1789.96 1482.55 1791.77 1479.01 Q1793.6 1475.44 1793.6 1468.33 Q1793.6 1461.2 1791.77 1457.66 Q1789.96 1454.1 1786.33 1454.1 M1786.33 1450.39 Q1792.14 1450.39 1795.19 1455 Q1798.27 1459.58 1798.27 1468.33 Q1798.27 1477.06 1795.19 1481.67 Q1792.14 1486.25 1786.33 1486.25 Q1780.52 1486.25 1777.44 1481.67 Q1774.38 1477.06 1774.38 1468.33 Q1774.38 1459.58 1777.44 1455 Q1780.52 1450.39 1786.33 1450.39 Z" fill="#000000" fill-rule="nonzero" fill-opacity="1" /><path clip-path="url(#clip400)" d="M1807.3 1481.64 L1814.94 1481.64 L1814.94 1455.28 L1806.63 1456.95 L1806.63 1452.69 L1814.89 1451.02 L1819.57 1451.02 L1819.57 1481.64 L1827.21 1481.64 L1827.21 1485.58 L1807.3 1485.58 L1807.3 1481.64 Z" fill="#000000" fill-rule="nonzero" fill-opacity="1" /><path clip-path="url(#clip400)" d="M1836.7 1451.02 L1855.05 1451.02 L1855.05 1454.96 L1840.98 1454.96 L1840.98 1463.43 Q1842 1463.08 1843.02 1462.92 Q1844.04 1462.73 1845.05 1462.73 Q1850.84 1462.73 1854.22 1465.9 Q1857.6 1469.08 1857.6 1474.49 Q1857.6 1480.07 1854.13 1483.17 Q1850.66 1486.25 1844.34 1486.25 Q1842.16 1486.25 1839.89 1485.88 Q1837.65 1485.51 1835.24 1484.77 L1835.24 1480.07 Q1837.32 1481.2 1839.55 1481.76 Q1841.77 1482.32 1844.24 1482.32 Q1848.25 1482.32 1850.59 1480.21 Q1852.92 1478.1 1852.92 1474.49 Q1852.92 1470.88 1850.59 1468.77 Q1848.25 1466.67 1844.24 1466.67 Q1842.37 1466.67 1840.49 1467.08 Q1838.64 1467.5 1836.7 1468.38 L1836.7 1451.02 Z" fill="#000000" fill-rule="nonzero" fill-opacity="1" /><path clip-path="url(#clip400)" d="M2242.26 1481.64 L2258.58 1481.64 L2258.58 1485.58 L2236.63 1485.58 L2236.63 1481.64 Q2239.3 1478.89 2243.88 1474.26 Q2248.49 1469.61 2249.67 1468.27 Q2251.91 1465.74 2252.79 1464.01 Q2253.69 1462.25 2253.69 1460.56 Q2253.69 1457.8 2251.75 1456.07 Q2249.83 1454.33 2246.73 1454.33 Q2244.53 1454.33 2242.07 1455.09 Q2239.64 1455.86 2236.87 1457.41 L2236.87 1452.69 Q2239.69 1451.55 2242.14 1450.97 Q2244.6 1450.39 2246.63 1450.39 Q2252.01 1450.39 2255.2 1453.08 Q2258.39 1455.77 2258.39 1460.26 Q2258.39 1462.39 2257.58 1464.31 Q2256.8 1466.2 2254.69 1468.8 Q2254.11 1469.47 2251.01 1472.69 Q2247.91 1475.88 2242.26 1481.64 Z" fill="#000000" fill-rule="nonzero" fill-opacity="1" /><path clip-path="url(#clip400)" d="M2278.39 1454.1 Q2274.78 1454.1 2272.95 1457.66 Q2271.15 1461.2 2271.15 1468.33 Q2271.15 1475.44 2272.95 1479.01 Q2274.78 1482.55 2278.39 1482.55 Q2282.03 1482.55 2283.83 1479.01 Q2285.66 1475.44 2285.66 1468.33 Q2285.66 1461.2 2283.83 1457.66 Q2282.03 1454.1 2278.39 1454.1 M2278.39 1450.39 Q2284.2 1450.39 2287.26 1455 Q2290.34 1459.58 2290.34 1468.33 Q2290.34 1477.06 2287.26 1481.67 Q2284.2 1486.25 2278.39 1486.25 Q2272.58 1486.25 2269.5 1481.67 Q2266.45 1477.06 2266.45 1468.33 Q2266.45 1459.58 2269.5 1455 Q2272.58 1450.39 2278.39 1450.39 Z" fill="#000000" fill-rule="nonzero" fill-opacity="1" /><path clip-path="url(#clip400)" d="M2302.58 1481.64 L2318.9 1481.64 L2318.9 1485.58 L2296.96 1485.58 L2296.96 1481.64 Q2299.62 1478.89 2304.2 1474.26 Q2308.81 1469.61 2309.99 1468.27 Q2312.24 1465.74 2313.12 1464.01 Q2314.02 1462.25 2314.02 1460.56 Q2314.02 1457.8 2312.07 1456.07 Q2310.15 1454.33 2307.05 1454.33 Q2304.85 1454.33 2302.4 1455.09 Q2299.97 1455.86 2297.19 1457.41 L2297.19 1452.69 Q2300.01 1451.55 2302.47 1450.97 Q2304.92 1450.39 2306.96 1450.39 Q2312.33 1450.39 2315.52 1453.08 Q2318.72 1455.77 2318.72 1460.26 Q2318.72 1462.39 2317.91 1464.31 Q2317.12 1466.2 2315.01 1468.8 Q2314.44 1469.47 2311.33 1472.69 Q2308.23 1475.88 2302.58 1481.64 Z" fill="#000000" fill-rule="nonzero" fill-opacity="1" /><path clip-path="url(#clip400)" d="M2338.72 1454.1 Q2335.11 1454.1 2333.28 1457.66 Q2331.47 1461.2 2331.47 1468.33 Q2331.47 1475.44 2333.28 1479.01 Q2335.11 1482.55 2338.72 1482.55 Q2342.35 1482.55 2344.16 1479.01 Q2345.99 1475.44 2345.99 1468.33 Q2345.99 1461.2 2344.16 1457.66 Q2342.35 1454.1 2338.72 1454.1 M2338.72 1450.39 Q2344.53 1450.39 2347.58 1455 Q2350.66 1459.58 2350.66 1468.33 Q2350.66 1477.06 2347.58 1481.67 Q2344.53 1486.25 2338.72 1486.25 Q2332.91 1486.25 2329.83 1481.67 Q2326.77 1477.06 2326.77 1468.33 Q2326.77 1459.58 2329.83 1455 Q2332.91 1450.39 2338.72 1450.39 Z" fill="#000000" fill-rule="nonzero" fill-opacity="1" /><path clip-path="url(#clip400)" d="M1269.44 1526.86 L1260.72 1550.51 L1278.19 1550.51 L1269.44 1526.86 M1265.81 1520.52 L1273.1 1520.52 L1291.21 1568.04 L1284.52 1568.04 L1280.19 1555.85 L1258.77 1555.85 L1254.44 1568.04 L1247.67 1568.04 L1265.81 1520.52 Z" fill="#000000" fill-rule="nonzero" fill-opacity="1" /><path clip-path="url(#clip400)" d="M1327.52 1546.53 L1327.52 1568.04 L1321.67 1568.04 L1321.67 1546.72 Q1321.67 1541.66 1319.69 1539.14 Q1317.72 1536.63 1313.77 1536.63 Q1309.03 1536.63 1306.29 1539.65 Q1303.56 1542.68 1303.56 1547.9 L1303.56 1568.04 L1297.67 1568.04 L1297.67 1532.4 L1303.56 1532.4 L1303.56 1537.93 Q1305.66 1534.72 1308.49 1533.13 Q1311.35 1531.54 1315.08 1531.54 Q1321.22 1531.54 1324.37 1535.36 Q1327.52 1539.14 1327.52 1546.53 Z" fill="#000000" fill-rule="nonzero" fill-opacity="1" /><path clip-path="url(#clip400)" d="M1353.02 1536.5 Q1348.31 1536.5 1345.57 1540.19 Q1342.83 1543.85 1342.83 1550.25 Q1342.83 1556.65 1345.54 1560.34 Q1348.28 1564 1353.02 1564 Q1357.7 1564 1360.43 1560.31 Q1363.17 1556.62 1363.17 1550.25 Q1363.17 1543.92 1360.43 1540.23 Q1357.7 1536.5 1353.02 1536.5 M1353.02 1531.54 Q1360.66 1531.54 1365.02 1536.5 Q1369.38 1541.47 1369.38 1550.25 Q1369.38 1559 1365.02 1564 Q1360.66 1568.97 1353.02 1568.97 Q1345.35 1568.97 1340.99 1564 Q1336.66 1559 1336.66 1550.25 Q1336.66 1541.47 1340.99 1536.5 Q1345.35 1531.54 1353.02 1531.54 Z" fill="#000000" fill-rule="nonzero" fill-opacity="1" /><polyline clip-path="url(#clip400)" style="stroke:#000000; stroke-linecap:round; stroke-linejoin:round; stroke-width:4; stroke-opacity:1; fill:none" points="264.287,1423.18 264.287,123.472 "/>
<polyline clip-path="url(#clip400)" style="stroke:#000000; stroke-linecap:round; stroke-linejoin:round; stroke-width:4; stroke-opacity:1; fill:none" points="264.287,1202.88 283.185,1202.88 "/>
<polyline clip-path="url(#clip400)" style="stroke:#000000; stroke-linecap:round; stroke-linejoin:round; stroke-width:4; stroke-opacity:1; fill:none" points="264.287,962.277 283.185,962.277 "/>
<polyline clip-path="url(#clip400)" style="stroke:#000000; stroke-linecap:round; stroke-linejoin:round; stroke-width:4; stroke-opacity:1; fill:none" points="264.287,721.671 283.185,721.671 "/>
<polyline clip-path="url(#clip400)" style="stroke:#000000; stroke-linecap:round; stroke-linejoin:round; stroke-width:4; stroke-opacity:1; fill:none" points="264.287,481.064 283.185,481.064 "/>
<polyline clip-path="url(#clip400)" style="stroke:#000000; stroke-linecap:round; stroke-linejoin:round; stroke-width:4; stroke-opacity:1; fill:none" points="264.287,240.458 283.185,240.458 "/>
<path clip-path="url(#clip400)" d="M116.668 1216.23 L124.306 1216.23 L124.306 1189.86 L115.996 1191.53 L115.996 1187.27 L124.26 1185.6 L128.936 1185.6 L128.936 1216.23 L136.575 1216.23 L136.575 1220.16 L116.668 1220.16 L116.668 1216.23 Z" fill="#000000" fill-rule="nonzero" fill-opacity="1" /><path clip-path="url(#clip400)" d="M150.047 1216.23 L166.366 1216.23 L166.366 1220.16 L144.422 1220.16 L144.422 1216.23 Q147.084 1213.47 151.667 1208.84 Q156.274 1204.19 157.454 1202.85 Q159.7 1200.32 160.579 1198.59 Q161.482 1196.83 161.482 1195.14 Q161.482 1192.39 159.538 1190.65 Q157.616 1188.91 154.515 1188.91 Q152.316 1188.91 149.862 1189.68 Q147.431 1190.44 144.654 1191.99 L144.654 1187.27 Q147.478 1186.14 149.931 1185.56 Q152.385 1184.98 154.422 1184.98 Q159.792 1184.98 162.987 1187.66 Q166.181 1190.35 166.181 1194.84 Q166.181 1196.97 165.371 1198.89 Q164.584 1200.79 162.477 1203.38 Q161.899 1204.05 158.797 1207.27 Q155.695 1210.46 150.047 1216.23 Z" fill="#000000" fill-rule="nonzero" fill-opacity="1" /><path clip-path="url(#clip400)" d="M186.181 1188.68 Q182.57 1188.68 180.741 1192.25 Q178.936 1195.79 178.936 1202.92 Q178.936 1210.02 180.741 1213.59 Q182.57 1217.13 186.181 1217.13 Q189.815 1217.13 191.621 1213.59 Q193.45 1210.02 193.45 1202.92 Q193.45 1195.79 191.621 1192.25 Q189.815 1188.68 186.181 1188.68 M186.181 1184.98 Q191.991 1184.98 195.047 1189.58 Q198.125 1194.17 198.125 1202.92 Q198.125 1211.64 195.047 1216.25 Q191.991 1220.83 186.181 1220.83 Q180.371 1220.83 177.292 1216.25 Q174.237 1211.64 174.237 1202.92 Q174.237 1194.17 177.292 1189.58 Q180.371 1184.98 186.181 1184.98 Z" fill="#000000" fill-rule="nonzero" fill-opacity="1" /><path clip-path="url(#clip400)" d="M216.343 1188.68 Q212.732 1188.68 210.903 1192.25 Q209.098 1195.79 209.098 1202.92 Q209.098 1210.02 210.903 1213.59 Q212.732 1217.13 216.343 1217.13 Q219.977 1217.13 221.783 1213.59 Q223.611 1210.02 223.611 1202.92 Q223.611 1195.79 221.783 1192.25 Q219.977 1188.68 216.343 1188.68 M216.343 1184.98 Q222.153 1184.98 225.209 1189.58 Q228.287 1194.17 228.287 1202.92 Q228.287 1211.64 225.209 1216.25 Q222.153 1220.83 216.343 1220.83 Q210.533 1220.83 207.454 1216.25 Q204.399 1211.64 204.399 1202.92 Q204.399 1194.17 207.454 1189.58 Q210.533 1184.98 216.343 1184.98 Z" fill="#000000" fill-rule="nonzero" fill-opacity="1" /><path clip-path="url(#clip400)" d="M116.668 975.622 L124.306 975.622 L124.306 949.256 L115.996 950.923 L115.996 946.663 L124.26 944.997 L128.936 944.997 L128.936 975.622 L136.575 975.622 L136.575 979.557 L116.668 979.557 L116.668 975.622 Z" fill="#000000" fill-rule="nonzero" fill-opacity="1" /><path clip-path="url(#clip400)" d="M146.066 944.997 L164.422 944.997 L164.422 948.932 L150.348 948.932 L150.348 957.404 Q151.366 957.057 152.385 956.895 Q153.403 956.71 154.422 956.71 Q160.209 956.71 163.589 959.881 Q166.968 963.052 166.968 968.469 Q166.968 974.047 163.496 977.149 Q160.024 980.228 153.704 980.228 Q151.528 980.228 149.26 979.858 Q147.015 979.487 144.607 978.746 L144.607 974.047 Q146.691 975.182 148.913 975.737 Q151.135 976.293 153.612 976.293 Q157.616 976.293 159.954 974.186 Q162.292 972.08 162.292 968.469 Q162.292 964.858 159.954 962.751 Q157.616 960.645 153.612 960.645 Q151.737 960.645 149.862 961.061 Q148.01 961.478 146.066 962.358 L146.066 944.997 Z" fill="#000000" fill-rule="nonzero" fill-opacity="1" /><path clip-path="url(#clip400)" d="M186.181 948.075 Q182.57 948.075 180.741 951.64 Q178.936 955.182 178.936 962.311 Q178.936 969.418 180.741 972.983 Q182.57 976.524 186.181 976.524 Q189.815 976.524 191.621 972.983 Q193.45 969.418 193.45 962.311 Q193.45 955.182 191.621 951.64 Q189.815 948.075 186.181 948.075 M186.181 944.372 Q191.991 944.372 195.047 948.978 Q198.125 953.561 198.125 962.311 Q198.125 971.038 195.047 975.645 Q191.991 980.228 186.181 980.228 Q180.371 980.228 177.292 975.645 Q174.237 971.038 174.237 962.311 Q174.237 953.561 177.292 948.978 Q180.371 944.372 186.181 944.372 Z" fill="#000000" fill-rule="nonzero" fill-opacity="1" /><path clip-path="url(#clip400)" d="M216.343 948.075 Q212.732 948.075 210.903 951.64 Q209.098 955.182 209.098 962.311 Q209.098 969.418 210.903 972.983 Q212.732 976.524 216.343 976.524 Q219.977 976.524 221.783 972.983 Q223.611 969.418 223.611 962.311 Q223.611 955.182 221.783 951.64 Q219.977 948.075 216.343 948.075 M216.343 944.372 Q222.153 944.372 225.209 948.978 Q228.287 953.561 228.287 962.311 Q228.287 971.038 225.209 975.645 Q222.153 980.228 216.343 980.228 Q210.533 980.228 207.454 975.645 Q204.399 971.038 204.399 962.311 Q204.399 953.561 207.454 948.978 Q210.533 944.372 216.343 944.372 Z" fill="#000000" fill-rule="nonzero" fill-opacity="1" /><path clip-path="url(#clip400)" d="M116.668 735.015 L124.306 735.015 L124.306 708.65 L115.996 710.316 L115.996 706.057 L124.26 704.391 L128.936 704.391 L128.936 735.015 L136.575 735.015 L136.575 738.951 L116.668 738.951 L116.668 735.015 Z" fill="#000000" fill-rule="nonzero" fill-opacity="1" /><path clip-path="url(#clip400)" d="M156.019 722.539 Q152.686 722.539 150.765 724.321 Q148.866 726.103 148.866 729.228 Q148.866 732.353 150.765 734.136 Q152.686 735.918 156.019 735.918 Q159.353 735.918 161.274 734.136 Q163.195 732.33 163.195 729.228 Q163.195 726.103 161.274 724.321 Q159.376 722.539 156.019 722.539 M151.343 720.548 Q148.334 719.807 146.644 717.747 Q144.978 715.687 144.978 712.724 Q144.978 708.58 147.917 706.173 Q150.88 703.766 156.019 703.766 Q161.181 703.766 164.121 706.173 Q167.061 708.58 167.061 712.724 Q167.061 715.687 165.371 717.747 Q163.704 719.807 160.718 720.548 Q164.098 721.335 165.973 723.627 Q167.871 725.918 167.871 729.228 Q167.871 734.252 164.792 736.937 Q161.737 739.622 156.019 739.622 Q150.302 739.622 147.223 736.937 Q144.167 734.252 144.167 729.228 Q144.167 725.918 146.066 723.627 Q147.964 721.335 151.343 720.548 M149.63 713.164 Q149.63 715.849 151.297 717.353 Q152.987 718.858 156.019 718.858 Q159.028 718.858 160.718 717.353 Q162.431 715.849 162.431 713.164 Q162.431 710.478 160.718 708.974 Q159.028 707.469 156.019 707.469 Q152.987 707.469 151.297 708.974 Q149.63 710.478 149.63 713.164 Z" fill="#000000" fill-rule="nonzero" fill-opacity="1" /><path clip-path="url(#clip400)" d="M186.181 707.469 Q182.57 707.469 180.741 711.034 Q178.936 714.576 178.936 721.705 Q178.936 728.812 180.741 732.377 Q182.57 735.918 186.181 735.918 Q189.815 735.918 191.621 732.377 Q193.45 728.812 193.45 721.705 Q193.45 714.576 191.621 711.034 Q189.815 707.469 186.181 707.469 M186.181 703.766 Q191.991 703.766 195.047 708.372 Q198.125 712.955 198.125 721.705 Q198.125 730.432 195.047 735.039 Q191.991 739.622 186.181 739.622 Q180.371 739.622 177.292 735.039 Q174.237 730.432 174.237 721.705 Q174.237 712.955 177.292 708.372 Q180.371 703.766 186.181 703.766 Z" fill="#000000" fill-rule="nonzero" fill-opacity="1" /><path clip-path="url(#clip400)" d="M216.343 707.469 Q212.732 707.469 210.903 711.034 Q209.098 714.576 209.098 721.705 Q209.098 728.812 210.903 732.377 Q212.732 735.918 216.343 735.918 Q219.977 735.918 221.783 732.377 Q223.611 728.812 223.611 721.705 Q223.611 714.576 221.783 711.034 Q219.977 707.469 216.343 707.469 M216.343 703.766 Q222.153 703.766 225.209 708.372 Q228.287 712.955 228.287 721.705 Q228.287 730.432 225.209 735.039 Q222.153 739.622 216.343 739.622 Q210.533 739.622 207.454 735.039 Q204.399 730.432 204.399 721.705 Q204.399 712.955 207.454 708.372 Q210.533 703.766 216.343 703.766 Z" fill="#000000" fill-rule="nonzero" fill-opacity="1" /><path clip-path="url(#clip400)" d="M119.885 494.409 L136.204 494.409 L136.204 498.344 L114.26 498.344 L114.26 494.409 Q116.922 491.655 121.505 487.025 Q126.112 482.372 127.292 481.03 Q129.538 478.507 130.417 476.77 Q131.32 475.011 131.32 473.321 Q131.32 470.567 129.376 468.831 Q127.455 467.095 124.353 467.095 Q122.154 467.095 119.7 467.859 Q117.269 468.622 114.492 470.173 L114.492 465.451 Q117.316 464.317 119.769 463.738 Q122.223 463.159 124.26 463.159 Q129.63 463.159 132.825 465.845 Q136.019 468.53 136.019 473.021 Q136.019 475.15 135.209 477.071 Q134.422 478.97 132.316 481.562 Q131.737 482.233 128.635 485.451 Q125.533 488.645 119.885 494.409 Z" fill="#000000" fill-rule="nonzero" fill-opacity="1" /><path clip-path="url(#clip400)" d="M146.829 494.409 L154.468 494.409 L154.468 468.044 L146.158 469.71 L146.158 465.451 L154.422 463.784 L159.098 463.784 L159.098 494.409 L166.737 494.409 L166.737 498.344 L146.829 498.344 L146.829 494.409 Z" fill="#000000" fill-rule="nonzero" fill-opacity="1" /><path clip-path="url(#clip400)" d="M186.181 466.863 Q182.57 466.863 180.741 470.428 Q178.936 473.97 178.936 481.099 Q178.936 488.206 180.741 491.77 Q182.57 495.312 186.181 495.312 Q189.815 495.312 191.621 491.77 Q193.45 488.206 193.45 481.099 Q193.45 473.97 191.621 470.428 Q189.815 466.863 186.181 466.863 M186.181 463.159 Q191.991 463.159 195.047 467.766 Q198.125 472.349 198.125 481.099 Q198.125 489.826 195.047 494.432 Q191.991 499.016 186.181 499.016 Q180.371 499.016 177.292 494.432 Q174.237 489.826 174.237 481.099 Q174.237 472.349 177.292 467.766 Q180.371 463.159 186.181 463.159 Z" fill="#000000" fill-rule="nonzero" fill-opacity="1" /><path clip-path="url(#clip400)" d="M216.343 466.863 Q212.732 466.863 210.903 470.428 Q209.098 473.97 209.098 481.099 Q209.098 488.206 210.903 491.77 Q212.732 495.312 216.343 495.312 Q219.977 495.312 221.783 491.77 Q223.611 488.206 223.611 481.099 Q223.611 473.97 221.783 470.428 Q219.977 466.863 216.343 466.863 M216.343 463.159 Q222.153 463.159 225.209 467.766 Q228.287 472.349 228.287 481.099 Q228.287 489.826 225.209 494.432 Q222.153 499.016 216.343 499.016 Q210.533 499.016 207.454 494.432 Q204.399 489.826 204.399 481.099 Q204.399 472.349 207.454 467.766 Q210.533 463.159 216.343 463.159 Z" fill="#000000" fill-rule="nonzero" fill-opacity="1" /><path clip-path="url(#clip400)" d="M119.885 253.803 L136.204 253.803 L136.204 257.738 L114.26 257.738 L114.26 253.803 Q116.922 251.049 121.505 246.419 Q126.112 241.766 127.292 240.424 Q129.538 237.9 130.417 236.164 Q131.32 234.405 131.32 232.715 Q131.32 229.961 129.376 228.225 Q127.455 226.489 124.353 226.489 Q122.154 226.489 119.7 227.252 Q117.269 228.016 114.492 229.567 L114.492 224.845 Q117.316 223.711 119.769 223.132 Q122.223 222.553 124.26 222.553 Q129.63 222.553 132.825 225.239 Q136.019 227.924 136.019 232.414 Q136.019 234.544 135.209 236.465 Q134.422 238.363 132.316 240.956 Q131.737 241.627 128.635 244.845 Q125.533 248.039 119.885 253.803 Z" fill="#000000" fill-rule="nonzero" fill-opacity="1" /><path clip-path="url(#clip400)" d="M158.866 227.252 L147.061 245.701 L158.866 245.701 L158.866 227.252 M157.64 223.178 L163.519 223.178 L163.519 245.701 L168.45 245.701 L168.45 249.59 L163.519 249.59 L163.519 257.738 L158.866 257.738 L158.866 249.59 L143.265 249.59 L143.265 245.076 L157.64 223.178 Z" fill="#000000" fill-rule="nonzero" fill-opacity="1" /><path clip-path="url(#clip400)" d="M186.181 226.257 Q182.57 226.257 180.741 229.822 Q178.936 233.363 178.936 240.493 Q178.936 247.6 180.741 251.164 Q182.57 254.706 186.181 254.706 Q189.815 254.706 191.621 251.164 Q193.45 247.6 193.45 240.493 Q193.45 233.363 191.621 229.822 Q189.815 226.257 186.181 226.257 M186.181 222.553 Q191.991 222.553 195.047 227.16 Q198.125 231.743 198.125 240.493 Q198.125 249.22 195.047 253.826 Q191.991 258.41 186.181 258.41 Q180.371 258.41 177.292 253.826 Q174.237 249.22 174.237 240.493 Q174.237 231.743 177.292 227.16 Q180.371 222.553 186.181 222.553 Z" fill="#000000" fill-rule="nonzero" fill-opacity="1" /><path clip-path="url(#clip400)" d="M216.343 226.257 Q212.732 226.257 210.903 229.822 Q209.098 233.363 209.098 240.493 Q209.098 247.6 210.903 251.164 Q212.732 254.706 216.343 254.706 Q219.977 254.706 221.783 251.164 Q223.611 247.6 223.611 240.493 Q223.611 233.363 221.783 229.822 Q219.977 226.257 216.343 226.257 M216.343 222.553 Q222.153 222.553 225.209 227.16 Q228.287 231.743 228.287 240.493 Q228.287 249.22 225.209 253.826 Q222.153 258.41 216.343 258.41 Q210.533 258.41 207.454 253.826 Q204.399 249.22 204.399 240.493 Q204.399 231.743 207.454 227.16 Q210.533 222.553 216.343 222.553 Z" fill="#000000" fill-rule="nonzero" fill-opacity="1" /><path clip-path="url(#clip400)" d="M21.7677 1103.53 L39.6235 1103.53 L39.6235 1095.45 Q39.6235 1090.96 37.3 1088.51 Q34.9765 1086.06 30.6797 1086.06 Q26.4147 1086.06 24.0912 1088.51 Q21.7677 1090.96 21.7677 1095.45 L21.7677 1103.53 M16.4842 1109.96 L16.4842 1095.45 Q16.4842 1087.46 20.1126 1083.38 Q23.7092 1079.28 30.6797 1079.28 Q37.7138 1079.28 41.3104 1083.38 Q44.907 1087.46 44.907 1095.45 L44.907 1103.53 L64.0042 1103.53 L64.0042 1109.96 L16.4842 1109.96 Z" fill="#000000" fill-rule="nonzero" fill-opacity="1" /><path clip-path="url(#clip400)" d="M32.4621 1059.42 Q32.4621 1064.13 36.1542 1066.86 Q39.8145 1069.6 46.212 1069.6 Q52.6095 1069.6 56.3017 1066.9 Q59.9619 1064.16 59.9619 1059.42 Q59.9619 1054.74 56.2698 1052 Q52.5777 1049.26 46.212 1049.26 Q39.8781 1049.26 36.186 1052 Q32.4621 1054.74 32.4621 1059.42 M27.4968 1059.42 Q27.4968 1051.78 32.4621 1047.42 Q37.4273 1043.06 46.212 1043.06 Q54.9649 1043.06 59.9619 1047.42 Q64.9272 1051.78 64.9272 1059.42 Q64.9272 1067.09 59.9619 1071.45 Q54.9649 1075.78 46.212 1075.78 Q37.4273 1075.78 32.4621 1071.45 Q27.4968 1067.09 27.4968 1059.42 Z" fill="#000000" fill-rule="nonzero" fill-opacity="1" /><path clip-path="url(#clip400)" d="M58.657 1027.68 L77.5631 1027.68 L77.5631 1033.57 L28.3562 1033.57 L28.3562 1027.68 L33.7671 1027.68 Q30.5842 1025.84 29.0564 1023.04 Q27.4968 1020.2 27.4968 1016.29 Q27.4968 1009.8 32.6531 1005.75 Q37.8093 1001.68 46.212 1001.68 Q54.6147 1001.68 59.771 1005.75 Q64.9272 1009.8 64.9272 1016.29 Q64.9272 1020.2 63.3994 1023.04 Q61.8398 1025.84 58.657 1027.68 M46.212 1007.76 Q39.7508 1007.76 36.0905 1010.43 Q32.3984 1013.07 32.3984 1017.72 Q32.3984 1022.37 36.0905 1025.04 Q39.7508 1027.68 46.212 1027.68 Q52.6732 1027.68 56.3653 1025.04 Q60.0256 1022.37 60.0256 1017.72 Q60.0256 1013.07 56.3653 1010.43 Q52.6732 1007.76 46.212 1007.76 Z" fill="#000000" fill-rule="nonzero" fill-opacity="1" /><path clip-path="url(#clip400)" d="M49.9359 992.577 L28.3562 992.577 L28.3562 986.72 L49.7131 986.72 Q54.7739 986.72 57.3202 984.747 Q59.8346 982.774 59.8346 978.827 Q59.8346 974.084 56.8109 971.347 Q53.7872 968.578 48.5673 968.578 L28.3562 968.578 L28.3562 962.722 L64.0042 962.722 L64.0042 968.578 L58.5296 968.578 Q61.7762 970.711 63.3676 973.543 Q64.9272 976.344 64.9272 980.068 Q64.9272 986.211 61.1078 989.394 Q57.2883 992.577 49.9359 992.577 M27.4968 977.84 L27.4968 977.84 Z" fill="#000000" fill-rule="nonzero" fill-opacity="1" /><path clip-path="url(#clip400)" d="M14.479 950.659 L14.479 944.802 L64.0042 944.802 L64.0042 950.659 L14.479 950.659 Z" fill="#000000" fill-rule="nonzero" fill-opacity="1" /><path clip-path="url(#clip400)" d="M46.0847 916.347 Q46.0847 923.445 47.7079 926.183 Q49.3312 928.92 53.2461 928.92 Q56.3653 928.92 58.2114 926.883 Q60.0256 924.814 60.0256 921.281 Q60.0256 916.411 56.5881 913.483 Q53.1188 910.523 47.3897 910.523 L46.0847 910.523 L46.0847 916.347 M43.6657 904.666 L64.0042 904.666 L64.0042 910.523 L58.5933 910.523 Q61.8398 912.528 63.3994 915.52 Q64.9272 918.512 64.9272 922.841 Q64.9272 928.315 61.8716 931.562 Q58.7843 934.776 53.6281 934.776 Q47.6125 934.776 44.5569 930.766 Q41.5014 926.724 41.5014 918.735 L41.5014 910.523 L40.9285 910.523 Q36.8862 910.523 34.6901 913.196 Q32.4621 915.838 32.4621 920.644 Q32.4621 923.7 33.1941 926.596 Q33.9262 929.493 35.3903 932.166 L29.9795 932.166 Q28.7381 928.952 28.1334 925.928 Q27.4968 922.904 27.4968 920.04 Q27.4968 912.305 31.5072 908.486 Q35.5176 904.666 43.6657 904.666 Z" fill="#000000" fill-rule="nonzero" fill-opacity="1" /><path clip-path="url(#clip400)" d="M29.7248 866.95 L35.1993 866.95 Q33.8307 869.432 33.1623 871.947 Q32.4621 874.429 32.4621 876.976 Q32.4621 882.673 36.0905 885.824 Q39.6872 888.975 46.212 888.975 Q52.7369 888.975 56.3653 885.824 Q59.9619 882.673 59.9619 876.976 Q59.9619 874.429 59.2935 871.947 Q58.5933 869.432 57.2247 866.95 L62.6355 866.95 Q63.7814 869.4 64.3543 872.042 Q64.9272 874.652 64.9272 877.612 Q64.9272 885.665 59.8664 890.407 Q54.8057 895.15 46.212 895.15 Q37.491 895.15 32.4939 890.375 Q27.4968 885.569 27.4968 877.23 Q27.4968 874.525 28.0697 871.947 Q28.6108 869.369 29.7248 866.95 M64.0042 875.225 Q65.9775 873.474 67.6326 872.615 Q69.3195 871.756 70.8473 871.756 Q73.68 871.756 75.1123 873.665 Q76.5764 875.575 76.5764 879.331 Q76.5764 880.795 76.3855 882.195 Q76.1945 883.564 75.8125 884.933 L71.643 884.933 Q72.1841 883.851 72.4069 882.673 Q72.6615 881.495 72.6615 879.999 Q72.6615 878.121 71.8976 877.167 Q71.1337 876.212 69.6696 876.212 Q68.7148 876.212 67.3143 876.912 Q65.9457 877.58 64.0042 879.013 L64.0042 875.225 Z" fill="#000000" fill-rule="nonzero" fill-opacity="1" /><path clip-path="url(#clip400)" d="M46.0847 840.564 Q46.0847 847.662 47.7079 850.399 Q49.3312 853.136 53.2461 853.136 Q56.3653 853.136 58.2114 851.099 Q60.0256 849.03 60.0256 845.497 Q60.0256 840.627 56.5881 837.699 Q53.1188 834.739 47.3897 834.739 L46.0847 834.739 L46.0847 840.564 M43.6657 828.883 L64.0042 828.883 L64.0042 834.739 L58.5933 834.739 Q61.8398 836.744 63.3994 839.736 Q64.9272 842.728 64.9272 847.057 Q64.9272 852.531 61.8716 855.778 Q58.7843 858.992 53.6281 858.992 Q47.6125 858.992 44.5569 854.982 Q41.5014 850.94 41.5014 842.951 L41.5014 834.739 L40.9285 834.739 Q36.8862 834.739 34.6901 837.413 Q32.4621 840.055 32.4621 844.861 Q32.4621 847.916 33.1941 850.813 Q33.9262 853.709 35.3903 856.383 L29.9795 856.383 Q28.7381 853.168 28.1334 850.144 Q27.4968 847.12 27.4968 844.256 Q27.4968 836.522 31.5072 832.702 Q35.5176 828.883 43.6657 828.883 M20.3991 844.129 L18.6485 845.943 Q18.0119 846.643 17.7255 847.184 Q17.4072 847.693 17.4072 848.107 Q17.4072 849.317 18.5848 849.89 Q19.7307 850.462 22.3406 850.526 L22.3406 854.505 Q18.0438 854.441 15.7203 852.818 Q13.365 851.194 13.365 848.298 Q13.365 847.089 13.8106 846.07 Q14.2562 845.052 15.3065 843.874 L17.0571 842.06 Q17.6936 841.359 18.0119 840.85 Q18.2984 840.309 18.2984 839.895 Q18.2984 838.686 17.1526 838.113 Q15.9749 837.54 13.365 837.476 L13.365 833.498 Q17.6618 833.561 20.0171 835.185 Q22.3406 836.808 22.3406 839.704 Q22.3406 840.914 21.895 841.932 Q21.4494 842.951 20.3991 844.129 Z" fill="#000000" fill-rule="nonzero" fill-opacity="1" /><path clip-path="url(#clip400)" d="M32.4621 803.006 Q32.4621 807.717 36.1542 810.454 Q39.8145 813.191 46.212 813.191 Q52.6095 813.191 56.3017 810.486 Q59.9619 807.749 59.9619 803.006 Q59.9619 798.327 56.2698 795.59 Q52.5777 792.853 46.212 792.853 Q39.8781 792.853 36.186 795.59 Q32.4621 798.327 32.4621 803.006 M27.4968 803.006 Q27.4968 795.367 32.4621 791.007 Q37.4273 786.646 46.212 786.646 Q54.9649 786.646 59.9619 791.007 Q64.9272 795.367 64.9272 803.006 Q64.9272 810.677 59.9619 815.037 Q54.9649 819.366 46.212 819.366 Q37.4273 819.366 32.4621 815.037 Q27.4968 810.677 27.4968 803.006 Z" fill="#000000" fill-rule="nonzero" fill-opacity="1" /><path clip-path="url(#clip400)" d="M14.5426 742.15 Q21.8632 746.415 29.0246 748.484 Q36.186 750.553 43.5384 750.553 Q50.8908 750.553 58.1159 748.484 Q65.3091 746.383 72.5979 742.15 L72.5979 747.243 Q65.1182 752.017 57.8931 754.404 Q50.668 756.759 43.5384 756.759 Q36.4406 756.759 29.2474 754.404 Q22.0542 752.049 14.5426 747.243 L14.5426 742.15 Z" fill="#000000" fill-rule="nonzero" fill-opacity="1" /><path clip-path="url(#clip400)" d="M35.1993 703.033 Q31.2526 700.836 29.3747 697.781 Q27.4968 694.725 27.4968 690.588 Q27.4968 685.018 31.4117 681.994 Q35.2948 678.97 42.4881 678.97 L64.0042 678.97 L64.0042 684.859 L42.679 684.859 Q37.5546 684.859 35.072 686.673 Q32.5894 688.487 32.5894 692.211 Q32.5894 696.762 35.6131 699.404 Q38.6368 702.046 43.8567 702.046 L64.0042 702.046 L64.0042 707.934 L42.679 707.934 Q37.5228 707.934 35.072 709.748 Q32.5894 711.563 32.5894 715.35 Q32.5894 719.838 35.6449 722.48 Q38.6686 725.122 43.8567 725.122 L64.0042 725.122 L64.0042 731.01 L28.3562 731.01 L28.3562 725.122 L33.8944 725.122 Q30.616 723.116 29.0564 720.316 Q27.4968 717.515 27.4968 713.663 Q27.4968 709.78 29.4702 707.075 Q31.4436 704.338 35.1993 703.033 Z" fill="#000000" fill-rule="nonzero" fill-opacity="1" /><path clip-path="url(#clip400)" d="M28.3562 667.289 L28.3562 661.433 L64.0042 661.433 L64.0042 667.289 L28.3562 667.289 M14.479 667.289 L14.479 661.433 L21.895 661.433 L21.895 667.289 L14.479 667.289 Z" fill="#000000" fill-rule="nonzero" fill-opacity="1" /><path clip-path="url(#clip400)" d="M14.479 649.179 L14.479 643.322 L64.0042 643.322 L64.0042 649.179 L14.479 649.179 Z" fill="#000000" fill-rule="nonzero" fill-opacity="1" /><path clip-path="url(#clip400)" d="M42.4881 601.436 L64.0042 601.436 L64.0042 607.292 L42.679 607.292 Q37.6183 607.292 35.1038 609.266 Q32.5894 611.239 32.5894 615.186 Q32.5894 619.928 35.6131 622.666 Q38.6368 625.403 43.8567 625.403 L64.0042 625.403 L64.0042 631.291 L14.479 631.291 L14.479 625.403 L33.8944 625.403 Q30.6797 623.302 29.0883 620.469 Q27.4968 617.605 27.4968 613.881 Q27.4968 607.738 31.3163 604.587 Q35.1038 601.436 42.4881 601.436 Z" fill="#000000" fill-rule="nonzero" fill-opacity="1" /><path clip-path="url(#clip400)" d="M46.0847 573.554 Q46.0847 580.652 47.7079 583.389 Q49.3312 586.126 53.2461 586.126 Q56.3653 586.126 58.2114 584.089 Q60.0256 582.021 60.0256 578.488 Q60.0256 573.618 56.5881 570.69 Q53.1188 567.73 47.3897 567.73 L46.0847 567.73 L46.0847 573.554 M43.6657 561.873 L64.0042 561.873 L64.0042 567.73 L58.5933 567.73 Q61.8398 569.735 63.3994 572.727 Q64.9272 575.719 64.9272 580.047 Q64.9272 585.522 61.8716 588.768 Q58.7843 591.983 53.6281 591.983 Q47.6125 591.983 44.5569 587.973 Q41.5014 583.93 41.5014 575.941 L41.5014 567.73 L40.9285 567.73 Q36.8862 567.73 34.6901 570.403 Q32.4621 573.045 32.4621 577.851 Q32.4621 580.907 33.1941 583.803 Q33.9262 586.699 35.3903 589.373 L29.9795 589.373 Q28.7381 586.158 28.1334 583.135 Q27.4968 580.111 27.4968 577.246 Q27.4968 569.512 31.5072 565.693 Q35.5176 561.873 43.6657 561.873 Z" fill="#000000" fill-rule="nonzero" fill-opacity="1" /><path clip-path="url(#clip400)" d="M33.8307 529.153 Q33.2578 530.14 33.0032 531.318 Q32.7167 532.464 32.7167 533.864 Q32.7167 538.829 35.9632 541.503 Q39.1779 544.145 45.2253 544.145 L64.0042 544.145 L64.0042 550.033 L28.3562 550.033 L28.3562 544.145 L33.8944 544.145 Q30.6479 542.299 29.0883 539.339 Q27.4968 536.378 27.4968 532.145 Q27.4968 531.541 27.5923 530.808 Q27.656 530.076 27.8151 529.185 L33.8307 529.153 Z" fill="#000000" fill-rule="nonzero" fill-opacity="1" /><path clip-path="url(#clip400)" d="M44.7161 493.951 L47.5806 493.951 L47.5806 520.878 Q53.6281 520.496 56.8109 517.25 Q59.9619 513.971 59.9619 508.147 Q59.9619 504.773 59.1344 501.622 Q58.3069 498.439 56.6518 495.32 L62.1899 495.32 Q63.5267 498.471 64.227 501.781 Q64.9272 505.091 64.9272 508.497 Q64.9272 517.027 59.9619 522.024 Q54.9967 526.989 46.5303 526.989 Q37.7774 526.989 32.6531 522.278 Q27.4968 517.536 27.4968 509.515 Q27.4968 502.322 32.1438 498.152 Q36.7589 493.951 44.7161 493.951 M42.9973 499.807 Q38.1912 499.871 35.3266 502.513 Q32.4621 505.123 32.4621 509.452 Q32.4621 514.353 35.2312 517.313 Q38.0002 520.241 43.0292 520.687 L42.9973 499.807 Z" fill="#000000" fill-rule="nonzero" fill-opacity="1" /><path clip-path="url(#clip400)" d="M29.4065 461.613 L34.9447 461.613 Q33.6716 464.096 33.035 466.769 Q32.3984 469.443 32.3984 472.308 Q32.3984 476.668 33.7352 478.864 Q35.072 481.029 37.7456 481.029 Q39.7826 481.029 40.9603 479.469 Q42.1061 477.909 43.1565 473.199 L43.6021 471.194 Q44.9389 464.955 47.3897 462.345 Q49.8086 459.704 54.1691 459.704 Q59.1344 459.704 62.0308 463.65 Q64.9272 467.565 64.9272 474.44 Q64.9272 477.305 64.3543 480.424 Q63.8132 483.511 62.6992 486.949 L56.6518 486.949 Q58.3387 483.702 59.198 480.551 Q60.0256 477.4 60.0256 474.313 Q60.0256 470.175 58.6251 467.947 Q57.1929 465.719 54.6147 465.719 Q52.2276 465.719 50.9545 467.342 Q49.6813 468.934 48.5037 474.376 L48.0262 476.414 Q46.8804 481.856 44.5251 484.275 Q42.138 486.694 38.0002 486.694 Q32.9713 486.694 30.2341 483.129 Q27.4968 479.565 27.4968 473.008 Q27.4968 469.761 27.9743 466.897 Q28.4517 464.032 29.4065 461.613 Z" fill="#000000" fill-rule="nonzero" fill-opacity="1" /><path clip-path="url(#clip400)" d="M14.5426 451.301 L14.5426 446.208 Q22.0542 441.434 29.2474 439.079 Q36.4406 436.692 43.5384 436.692 Q50.668 436.692 57.8931 439.079 Q65.1182 441.434 72.5979 446.208 L72.5979 451.301 Q65.3091 447.068 58.1159 444.999 Q50.8908 442.898 43.5384 442.898 Q36.186 442.898 29.0246 444.999 Q21.8632 447.068 14.5426 451.301 Z" fill="#000000" fill-rule="nonzero" fill-opacity="1" /><path clip-path="url(#clip400)" d="M421.637 20.1573 L410.537 50.2555 L432.777 50.2555 L421.637 20.1573 M417.019 12.096 L426.295 12.096 L449.345 72.576 L440.838 72.576 L435.329 57.061 L408.066 57.061 L402.557 72.576 L393.929 72.576 L417.019 12.096 Z" fill="#000000" fill-rule="nonzero" fill-opacity="1" /><path clip-path="url(#clip400)" d="M457.852 27.2059 L465.306 27.2059 L465.306 73.3862 Q465.306 82.0551 461.984 85.944 Q458.703 89.8329 451.371 89.8329 L448.535 89.8329 L448.535 83.5134 L450.52 83.5134 Q454.773 83.5134 456.313 81.5285 Q457.852 79.5841 457.852 73.3862 L457.852 27.2059 M457.852 9.54393 L465.306 9.54393 L465.306 18.9825 L457.852 18.9825 L457.852 9.54393 Z" fill="#000000" fill-rule="nonzero" fill-opacity="1" /><path clip-path="url(#clip400)" d="M480.132 54.671 L480.132 27.2059 L487.586 27.2059 L487.586 54.3874 Q487.586 60.8284 490.097 64.0691 Q492.609 67.2693 497.632 67.2693 Q503.668 67.2693 507.151 63.421 Q510.676 59.5726 510.676 52.9291 L510.676 27.2059 L518.129 27.2059 L518.129 72.576 L510.676 72.576 L510.676 65.6084 Q507.962 69.7404 504.356 71.7658 Q500.792 73.7508 496.052 73.7508 Q488.234 73.7508 484.183 68.8897 Q480.132 64.0286 480.132 54.671 M498.888 26.1121 L498.888 26.1121 Z" fill="#000000" fill-rule="nonzero" fill-opacity="1" /><path clip-path="url(#clip400)" d="M562.406 28.5427 L562.406 35.5912 Q559.246 33.9709 555.843 33.1607 Q552.441 32.3505 548.795 32.3505 Q543.245 32.3505 540.45 34.0519 Q537.695 35.7533 537.695 39.156 Q537.695 41.7486 539.68 43.2475 Q541.665 44.7058 547.661 46.0426 L550.213 46.6097 Q558.152 48.3111 561.474 51.4303 Q564.836 54.509 564.836 60.0587 Q564.836 66.3781 559.813 70.0644 Q554.831 73.7508 546.081 73.7508 Q542.435 73.7508 538.465 73.0216 Q534.536 72.3329 530.161 70.9151 L530.161 63.2184 Q534.293 65.3654 538.303 66.4591 Q542.313 67.5124 546.243 67.5124 Q551.509 67.5124 554.345 65.73 Q557.18 63.9071 557.18 60.6258 Q557.18 57.5877 555.114 55.9673 Q553.089 54.3469 546.162 52.8481 L543.569 52.2405 Q536.642 50.7821 533.563 47.7845 Q530.485 44.7463 530.485 39.4801 Q530.485 33.0797 535.022 29.5959 Q539.559 26.1121 547.904 26.1121 Q552.036 26.1121 555.681 26.7198 Q559.327 27.3274 562.406 28.5427 Z" fill="#000000" fill-rule="nonzero" fill-opacity="1" /><path clip-path="url(#clip400)" d="M584.078 14.324 L584.078 27.2059 L599.431 27.2059 L599.431 32.9987 L584.078 32.9987 L584.078 57.6282 Q584.078 63.1779 585.577 64.7578 Q587.116 66.3376 591.775 66.3376 L599.431 66.3376 L599.431 72.576 L591.775 72.576 Q583.146 72.576 579.865 69.3758 Q576.584 66.1351 576.584 57.6282 L576.584 32.9987 L571.115 32.9987 L571.115 27.2059 L576.584 27.2059 L576.584 14.324 L584.078 14.324 Z" fill="#000000" fill-rule="nonzero" fill-opacity="1" /><path clip-path="url(#clip400)" d="M648.042 48.0275 L648.042 51.6733 L613.771 51.6733 Q614.257 59.3701 618.389 63.421 Q622.562 67.4314 629.975 67.4314 Q634.269 67.4314 638.279 66.3781 Q642.33 65.3249 646.3 63.2184 L646.3 70.267 Q642.29 71.9684 638.077 72.8596 Q633.864 73.7508 629.529 73.7508 Q618.673 73.7508 612.313 67.4314 Q605.994 61.1119 605.994 50.3365 Q605.994 39.1965 611.989 32.6746 Q618.025 26.1121 628.233 26.1121 Q637.388 26.1121 642.695 32.0264 Q648.042 37.9003 648.042 48.0275 M640.588 45.84 Q640.507 39.7232 637.145 36.0774 Q633.823 32.4315 628.314 32.4315 Q622.076 32.4315 618.308 35.9558 Q614.581 39.4801 614.014 45.8805 L640.588 45.84 Z" fill="#000000" fill-rule="nonzero" fill-opacity="1" /><path clip-path="url(#clip400)" d="M716.502 34.0924 L716.502 9.54393 L723.956 9.54393 L723.956 72.576 L716.502 72.576 L716.502 65.7705 Q714.153 69.8214 710.547 71.8063 Q706.983 73.7508 701.959 73.7508 Q693.736 73.7508 688.551 67.1883 Q683.406 60.6258 683.406 49.9314 Q683.406 39.2371 688.551 32.6746 Q693.736 26.1121 701.959 26.1121 Q706.983 26.1121 710.547 28.0971 Q714.153 30.0415 716.502 34.0924 M691.103 49.9314 Q691.103 58.1548 694.465 62.8538 Q697.868 67.5124 703.782 67.5124 Q709.697 67.5124 713.099 62.8538 Q716.502 58.1548 716.502 49.9314 Q716.502 41.7081 713.099 37.0496 Q709.697 32.3505 703.782 32.3505 Q697.868 32.3505 694.465 37.0496 Q691.103 41.7081 691.103 49.9314 Z" fill="#000000" fill-rule="nonzero" fill-opacity="1" /><path clip-path="url(#clip400)" d="M778.116 48.0275 L778.116 51.6733 L743.846 51.6733 Q744.332 59.3701 748.464 63.421 Q752.636 67.4314 760.049 67.4314 Q764.343 67.4314 768.354 66.3781 Q772.405 65.3249 776.375 63.2184 L776.375 70.267 Q772.364 71.9684 768.151 72.8596 Q763.938 73.7508 759.604 73.7508 Q748.747 73.7508 742.387 67.4314 Q736.068 61.1119 736.068 50.3365 Q736.068 39.1965 742.063 32.6746 Q748.099 26.1121 758.308 26.1121 Q767.463 26.1121 772.769 32.0264 Q778.116 37.9003 778.116 48.0275 M770.663 45.84 Q770.582 39.7232 767.22 36.0774 Q763.898 32.4315 758.389 32.4315 Q752.15 32.4315 748.383 35.9558 Q744.656 39.4801 744.089 45.8805 L770.663 45.84 Z" fill="#000000" fill-rule="nonzero" fill-opacity="1" /><path clip-path="url(#clip400)" d="M862.335 16.7545 L862.335 25.383 Q858.203 21.5346 853.504 19.6307 Q848.845 17.7268 843.579 17.7268 Q833.209 17.7268 827.7 24.0867 Q822.19 30.4061 822.19 42.3968 Q822.19 54.3469 827.7 60.7069 Q833.209 67.0263 843.579 67.0263 Q848.845 67.0263 853.504 65.1223 Q858.203 63.2184 862.335 59.3701 L862.335 67.9175 Q858.041 70.8341 853.22 72.2924 Q848.44 73.7508 843.093 73.7508 Q829.36 73.7508 821.461 65.3654 Q813.562 56.9395 813.562 42.3968 Q813.562 27.8135 821.461 19.4281 Q829.36 11.0023 843.093 11.0023 Q848.521 11.0023 853.301 12.4606 Q858.122 13.8784 862.335 16.7545 Z" fill="#000000" fill-rule="nonzero" fill-opacity="1" /><path clip-path="url(#clip400)" d="M900.94 34.1734 Q899.684 33.4443 898.185 33.1202 Q896.727 32.7556 894.945 32.7556 Q888.625 32.7556 885.222 36.8875 Q881.86 40.9789 881.86 48.6757 L881.86 72.576 L874.366 72.576 L874.366 27.2059 L881.86 27.2059 L881.86 34.2544 Q884.21 30.1225 887.977 28.1376 Q891.744 26.1121 897.132 26.1121 Q897.902 26.1121 898.833 26.2337 Q899.765 26.3147 900.899 26.5172 L900.94 34.1734 Z" fill="#000000" fill-rule="nonzero" fill-opacity="1" /><path clip-path="url(#clip400)" d="M945.743 48.0275 L945.743 51.6733 L911.472 51.6733 Q911.958 59.3701 916.09 63.421 Q920.263 67.4314 927.676 67.4314 Q931.97 67.4314 935.98 66.3781 Q940.031 65.3249 944.001 63.2184 L944.001 70.267 Q939.991 71.9684 935.778 72.8596 Q931.565 73.7508 927.23 73.7508 Q916.374 73.7508 910.014 67.4314 Q903.695 61.1119 903.695 50.3365 Q903.695 39.1965 909.69 32.6746 Q915.726 26.1121 925.934 26.1121 Q935.089 26.1121 940.396 32.0264 Q945.743 37.9003 945.743 48.0275 M938.289 45.84 Q938.208 39.7232 934.846 36.0774 Q931.524 32.4315 926.015 32.4315 Q919.777 32.4315 916.009 35.9558 Q912.282 39.4801 911.715 45.8805 L938.289 45.84 Z" fill="#000000" fill-rule="nonzero" fill-opacity="1" /><path clip-path="url(#clip400)" d="M986.9 28.5427 L986.9 35.5912 Q983.74 33.9709 980.338 33.1607 Q976.935 32.3505 973.289 32.3505 Q967.739 32.3505 964.944 34.0519 Q962.19 35.7533 962.19 39.156 Q962.19 41.7486 964.175 43.2475 Q966.159 44.7058 972.155 46.0426 L974.707 46.6097 Q982.647 48.3111 985.968 51.4303 Q989.331 54.509 989.331 60.0587 Q989.331 66.3781 984.307 70.0644 Q979.325 73.7508 970.575 73.7508 Q966.929 73.7508 962.959 73.0216 Q959.03 72.3329 954.655 70.9151 L954.655 63.2184 Q958.787 65.3654 962.797 66.4591 Q966.808 67.5124 970.737 67.5124 Q976.003 67.5124 978.839 65.73 Q981.674 63.9071 981.674 60.6258 Q981.674 57.5877 979.608 55.9673 Q977.583 54.3469 970.656 52.8481 L968.063 52.2405 Q961.136 50.7821 958.058 47.7845 Q954.979 44.7463 954.979 39.4801 Q954.979 33.0797 959.516 29.5959 Q964.053 26.1121 972.398 26.1121 Q976.53 26.1121 980.176 26.7198 Q983.821 27.3274 986.9 28.5427 Z" fill="#000000" fill-rule="nonzero" fill-opacity="1" /><path clip-path="url(#clip400)" d="M1033.85 28.9478 L1033.85 35.9153 Q1030.69 34.1734 1027.49 33.3227 Q1024.33 32.4315 1021.09 32.4315 Q1013.84 32.4315 1009.83 37.0496 Q1005.82 41.6271 1005.82 49.9314 Q1005.82 58.2358 1009.83 62.8538 Q1013.84 67.4314 1021.09 67.4314 Q1024.33 67.4314 1027.49 66.5807 Q1030.69 65.6895 1033.85 63.9476 L1033.85 70.8341 Q1030.73 72.2924 1027.37 73.0216 Q1024.05 73.7508 1020.28 73.7508 Q1010.03 73.7508 1003.99 67.3098 Q997.959 60.8689 997.959 49.9314 Q997.959 38.832 1004.04 32.472 Q1010.15 26.1121 1020.77 26.1121 Q1024.21 26.1121 1027.49 26.8413 Q1030.77 27.5299 1033.85 28.9478 Z" fill="#000000" fill-rule="nonzero" fill-opacity="1" /><path clip-path="url(#clip400)" d="M1046.81 27.2059 L1054.27 27.2059 L1054.27 72.576 L1046.81 72.576 L1046.81 27.2059 M1046.81 9.54393 L1054.27 9.54393 L1054.27 18.9825 L1046.81 18.9825 L1046.81 9.54393 Z" fill="#000000" fill-rule="nonzero" fill-opacity="1" /><path clip-path="url(#clip400)" d="M1105.19 35.9153 Q1107.98 30.8922 1111.87 28.5022 Q1115.76 26.1121 1121.03 26.1121 Q1128.11 26.1121 1131.96 31.0947 Q1135.81 36.0368 1135.81 45.1919 L1135.81 72.576 L1128.32 72.576 L1128.32 45.4349 Q1128.32 38.913 1126.01 35.7533 Q1123.7 32.5936 1118.96 32.5936 Q1113.17 32.5936 1109.8 36.4419 Q1106.44 40.2903 1106.44 46.9338 L1106.44 72.576 L1098.95 72.576 L1098.95 45.4349 Q1098.95 38.8725 1096.64 35.7533 Q1094.33 32.5936 1089.51 32.5936 Q1083.8 32.5936 1080.44 36.4824 Q1077.07 40.3308 1077.07 46.9338 L1077.07 72.576 L1069.58 72.576 L1069.58 27.2059 L1077.07 27.2059 L1077.07 34.2544 Q1079.63 30.082 1083.19 28.0971 Q1086.75 26.1121 1091.66 26.1121 Q1096.6 26.1121 1100.04 28.6237 Q1103.53 31.1352 1105.19 35.9153 Z" fill="#000000" fill-rule="nonzero" fill-opacity="1" /><path clip-path="url(#clip400)" d="M1189.49 48.0275 L1189.49 51.6733 L1155.22 51.6733 Q1155.7 59.3701 1159.83 63.421 Q1164.01 67.4314 1171.42 67.4314 Q1175.71 67.4314 1179.72 66.3781 Q1183.77 65.3249 1187.74 63.2184 L1187.74 70.267 Q1183.73 71.9684 1179.52 72.8596 Q1175.31 73.7508 1170.97 73.7508 Q1160.12 73.7508 1153.76 67.4314 Q1147.44 61.1119 1147.44 50.3365 Q1147.44 39.1965 1153.43 32.6746 Q1159.47 26.1121 1169.68 26.1121 Q1178.83 26.1121 1184.14 32.0264 Q1189.49 37.9003 1189.49 48.0275 M1182.03 45.84 Q1181.95 39.7232 1178.59 36.0774 Q1175.27 32.4315 1169.76 32.4315 Q1163.52 32.4315 1159.75 35.9558 Q1156.03 39.4801 1155.46 45.8805 L1182.03 45.84 Z" fill="#000000" fill-rule="nonzero" fill-opacity="1" /><path clip-path="url(#clip400)" d="M1239.43 45.1919 L1239.43 72.576 L1231.98 72.576 L1231.98 45.4349 Q1231.98 38.994 1229.47 35.7938 Q1226.96 32.5936 1221.93 32.5936 Q1215.9 32.5936 1212.41 36.4419 Q1208.93 40.2903 1208.93 46.9338 L1208.93 72.576 L1201.44 72.576 L1201.44 27.2059 L1208.93 27.2059 L1208.93 34.2544 Q1211.6 30.163 1215.21 28.1376 Q1218.85 26.1121 1223.59 26.1121 Q1231.41 26.1121 1235.42 30.9732 Q1239.43 35.7938 1239.43 45.1919 Z" fill="#000000" fill-rule="nonzero" fill-opacity="1" /><path clip-path="url(#clip400)" d="M1261.67 14.324 L1261.67 27.2059 L1277.03 27.2059 L1277.03 32.9987 L1261.67 32.9987 L1261.67 57.6282 Q1261.67 63.1779 1263.17 64.7578 Q1264.71 66.3376 1269.37 66.3376 L1277.03 66.3376 L1277.03 72.576 L1269.37 72.576 Q1260.74 72.576 1257.46 69.3758 Q1254.18 66.1351 1254.18 57.6282 L1254.18 32.9987 L1248.71 32.9987 L1248.71 27.2059 L1254.18 27.2059 L1254.18 14.324 L1261.67 14.324 Z" fill="#000000" fill-rule="nonzero" fill-opacity="1" /><path clip-path="url(#clip400)" d="M1304.41 32.4315 Q1298.41 32.4315 1294.93 37.1306 Q1291.45 41.7891 1291.45 49.9314 Q1291.45 58.0738 1294.89 62.7728 Q1298.37 67.4314 1304.41 67.4314 Q1310.36 67.4314 1313.85 62.7323 Q1317.33 58.0333 1317.33 49.9314 Q1317.33 41.8701 1313.85 37.1711 Q1310.36 32.4315 1304.41 32.4315 M1304.41 26.1121 Q1314.13 26.1121 1319.68 32.4315 Q1325.23 38.7509 1325.23 49.9314 Q1325.23 61.0714 1319.68 67.4314 Q1314.13 73.7508 1304.41 73.7508 Q1294.65 73.7508 1289.1 67.4314 Q1283.59 61.0714 1283.59 49.9314 Q1283.59 38.7509 1289.1 32.4315 Q1294.65 26.1121 1304.41 26.1121 Z" fill="#000000" fill-rule="nonzero" fill-opacity="1" /><path clip-path="url(#clip400)" d="M1372.47 18.8205 L1372.47 41.5461 L1382.75 41.5461 Q1388.47 41.5461 1391.59 38.5889 Q1394.7 35.6318 1394.7 30.163 Q1394.7 24.7348 1391.59 21.7777 Q1388.47 18.8205 1382.75 18.8205 L1372.47 18.8205 M1364.28 12.096 L1382.75 12.096 Q1392.92 12.096 1398.11 16.714 Q1403.33 21.2916 1403.33 30.163 Q1403.33 39.1155 1398.11 43.6931 Q1392.92 48.2706 1382.75 48.2706 L1372.47 48.2706 L1372.47 72.576 L1364.28 72.576 L1364.28 12.096 Z" fill="#000000" fill-rule="nonzero" fill-opacity="1" /><path clip-path="url(#clip400)" d="M1428.61 32.4315 Q1422.62 32.4315 1419.13 37.1306 Q1415.65 41.7891 1415.65 49.9314 Q1415.65 58.0738 1419.09 62.7728 Q1422.57 67.4314 1428.61 67.4314 Q1434.57 67.4314 1438.05 62.7323 Q1441.53 58.0333 1441.53 49.9314 Q1441.53 41.8701 1438.05 37.1711 Q1434.57 32.4315 1428.61 32.4315 M1428.61 26.1121 Q1438.33 26.1121 1443.88 32.4315 Q1449.43 38.7509 1449.43 49.9314 Q1449.43 61.0714 1443.88 67.4314 Q1438.33 73.7508 1428.61 73.7508 Q1418.85 73.7508 1413.3 67.4314 Q1407.79 61.0714 1407.79 49.9314 Q1407.79 38.7509 1413.3 32.4315 Q1418.85 26.1121 1428.61 26.1121 Z" fill="#000000" fill-rule="nonzero" fill-opacity="1" /><path clip-path="url(#clip400)" d="M1469 65.7705 L1469 89.8329 L1461.5 89.8329 L1461.5 27.2059 L1469 27.2059 L1469 34.0924 Q1471.35 30.0415 1474.91 28.0971 Q1478.52 26.1121 1483.5 26.1121 Q1491.76 26.1121 1496.91 32.6746 Q1502.09 39.2371 1502.09 49.9314 Q1502.09 60.6258 1496.91 67.1883 Q1491.76 73.7508 1483.5 73.7508 Q1478.52 73.7508 1474.91 71.8063 Q1471.35 69.8214 1469 65.7705 M1494.36 49.9314 Q1494.36 41.7081 1490.95 37.0496 Q1487.59 32.3505 1481.68 32.3505 Q1475.76 32.3505 1472.36 37.0496 Q1469 41.7081 1469 49.9314 Q1469 58.1548 1472.36 62.8538 Q1475.76 67.5124 1481.68 67.5124 Q1487.59 67.5124 1490.95 62.8538 Q1494.36 58.1548 1494.36 49.9314 Z" fill="#000000" fill-rule="nonzero" fill-opacity="1" /><path clip-path="url(#clip400)" d="M1513.68 54.671 L1513.68 27.2059 L1521.13 27.2059 L1521.13 54.3874 Q1521.13 60.8284 1523.64 64.0691 Q1526.16 67.2693 1531.18 67.2693 Q1537.22 67.2693 1540.7 63.421 Q1544.22 59.5726 1544.22 52.9291 L1544.22 27.2059 L1551.68 27.2059 L1551.68 72.576 L1544.22 72.576 L1544.22 65.6084 Q1541.51 69.7404 1537.9 71.7658 Q1534.34 73.7508 1529.6 73.7508 Q1521.78 73.7508 1517.73 68.8897 Q1513.68 64.0286 1513.68 54.671 M1532.44 26.1121 L1532.44 26.1121 Z" fill="#000000" fill-rule="nonzero" fill-opacity="1" /><path clip-path="url(#clip400)" d="M1567.03 9.54393 L1574.48 9.54393 L1574.48 72.576 L1567.03 72.576 L1567.03 9.54393 Z" fill="#000000" fill-rule="nonzero" fill-opacity="1" /><path clip-path="url(#clip400)" d="M1610.7 49.7694 Q1601.67 49.7694 1598.18 51.8354 Q1594.7 53.9013 1594.7 58.8839 Q1594.7 62.8538 1597.29 65.2034 Q1599.92 67.5124 1604.42 67.5124 Q1610.62 67.5124 1614.34 63.1374 Q1618.11 58.7219 1618.11 51.4303 L1618.11 49.7694 L1610.7 49.7694 M1625.57 46.6907 L1625.57 72.576 L1618.11 72.576 L1618.11 65.6895 Q1615.56 69.8214 1611.75 71.8063 Q1607.94 73.7508 1602.43 73.7508 Q1595.47 73.7508 1591.34 69.8619 Q1587.24 65.9325 1587.24 59.3701 Q1587.24 51.7138 1592.35 47.825 Q1597.49 43.9361 1607.66 43.9361 L1618.11 43.9361 L1618.11 43.2069 Q1618.11 38.0623 1614.71 35.2672 Q1611.35 32.4315 1605.23 32.4315 Q1601.34 32.4315 1597.65 33.3632 Q1593.97 34.295 1590.57 36.1584 L1590.57 29.2718 Q1594.66 27.692 1598.51 26.9223 Q1602.35 26.1121 1606 26.1121 Q1615.84 26.1121 1620.7 31.2163 Q1625.57 36.3204 1625.57 46.6907 Z" fill="#000000" fill-rule="nonzero" fill-opacity="1" /><path clip-path="url(#clip400)" d="M1673.57 28.9478 L1673.57 35.9153 Q1670.41 34.1734 1667.21 33.3227 Q1664.05 32.4315 1660.81 32.4315 Q1653.56 32.4315 1649.55 37.0496 Q1645.54 41.6271 1645.54 49.9314 Q1645.54 58.2358 1649.55 62.8538 Q1653.56 67.4314 1660.81 67.4314 Q1664.05 67.4314 1667.21 66.5807 Q1670.41 65.6895 1673.57 63.9476 L1673.57 70.8341 Q1670.45 72.2924 1667.09 73.0216 Q1663.77 73.7508 1660 73.7508 Q1649.75 73.7508 1643.71 67.3098 Q1637.68 60.8689 1637.68 49.9314 Q1637.68 38.832 1643.75 32.472 Q1649.87 26.1121 1660.48 26.1121 Q1663.93 26.1121 1667.21 26.8413 Q1670.49 27.5299 1673.57 28.9478 Z" fill="#000000" fill-rule="nonzero" fill-opacity="1" /><path clip-path="url(#clip400)" d="M1686.53 27.2059 L1693.99 27.2059 L1693.99 72.576 L1686.53 72.576 L1686.53 27.2059 M1686.53 9.54393 L1693.99 9.54393 L1693.99 18.9825 L1686.53 18.9825 L1686.53 9.54393 Z" fill="#000000" fill-rule="nonzero" fill-opacity="1" /><path clip-path="url(#clip400)" d="M1727.16 32.4315 Q1721.17 32.4315 1717.68 37.1306 Q1714.2 41.7891 1714.2 49.9314 Q1714.2 58.0738 1717.64 62.7728 Q1721.13 67.4314 1727.16 67.4314 Q1733.12 67.4314 1736.6 62.7323 Q1740.08 58.0333 1740.08 49.9314 Q1740.08 41.8701 1736.6 37.1711 Q1733.12 32.4315 1727.16 32.4315 M1727.16 26.1121 Q1736.88 26.1121 1742.43 32.4315 Q1747.98 38.7509 1747.98 49.9314 Q1747.98 61.0714 1742.43 67.4314 Q1736.88 73.7508 1727.16 73.7508 Q1717.4 73.7508 1711.85 67.4314 Q1706.34 61.0714 1706.34 49.9314 Q1706.34 38.7509 1711.85 32.4315 Q1717.4 26.1121 1727.16 26.1121 Z" fill="#000000" fill-rule="nonzero" fill-opacity="1" /><path clip-path="url(#clip400)" d="M1798.05 45.1919 L1798.05 72.576 L1790.6 72.576 L1790.6 45.4349 Q1790.6 38.994 1788.09 35.7938 Q1785.58 32.5936 1780.55 32.5936 Q1774.52 32.5936 1771.03 36.4419 Q1767.55 40.2903 1767.55 46.9338 L1767.55 72.576 L1760.06 72.576 L1760.06 27.2059 L1767.55 27.2059 L1767.55 34.2544 Q1770.22 30.163 1773.83 28.1376 Q1777.47 26.1121 1782.21 26.1121 Q1790.03 26.1121 1794.04 30.9732 Q1798.05 35.7938 1798.05 45.1919 Z" fill="#000000" fill-rule="nonzero" fill-opacity="1" /><path clip-path="url(#clip400)" d="M1833.54 49.7694 Q1824.51 49.7694 1821.02 51.8354 Q1817.54 53.9013 1817.54 58.8839 Q1817.54 62.8538 1820.13 65.2034 Q1822.76 67.5124 1827.26 67.5124 Q1833.46 67.5124 1837.18 63.1374 Q1840.95 58.7219 1840.95 51.4303 L1840.95 49.7694 L1833.54 49.7694 M1848.41 46.6907 L1848.41 72.576 L1840.95 72.576 L1840.95 65.6895 Q1838.4 69.8214 1834.59 71.8063 Q1830.78 73.7508 1825.28 73.7508 Q1818.31 73.7508 1814.18 69.8619 Q1810.08 65.9325 1810.08 59.3701 Q1810.08 51.7138 1815.19 47.825 Q1820.33 43.9361 1830.5 43.9361 L1840.95 43.9361 L1840.95 43.2069 Q1840.95 38.0623 1837.55 35.2672 Q1834.19 32.4315 1828.07 32.4315 Q1824.18 32.4315 1820.5 33.3632 Q1816.81 34.295 1813.41 36.1584 L1813.41 29.2718 Q1817.5 27.692 1821.35 26.9223 Q1825.19 26.1121 1828.84 26.1121 Q1838.68 26.1121 1843.54 31.2163 Q1848.41 36.3204 1848.41 46.6907 Z" fill="#000000" fill-rule="nonzero" fill-opacity="1" /><path clip-path="url(#clip400)" d="M1863.76 9.54393 L1871.21 9.54393 L1871.21 72.576 L1863.76 72.576 L1863.76 9.54393 Z" fill="#000000" fill-rule="nonzero" fill-opacity="1" /><path clip-path="url(#clip400)" d="M1907.83 27.2059 L1915.73 27.2059 L1929.91 65.2844 L1944.09 27.2059 L1951.99 27.2059 L1934.97 72.576 L1924.85 72.576 L1907.83 27.2059 Z" fill="#000000" fill-rule="nonzero" fill-opacity="1" /><path clip-path="url(#clip400)" d="M1962.28 27.2059 L1969.73 27.2059 L1969.73 72.576 L1962.28 72.576 L1962.28 27.2059 M1962.28 9.54393 L1969.73 9.54393 L1969.73 18.9825 L1962.28 18.9825 L1962.28 9.54393 Z" fill="#000000" fill-rule="nonzero" fill-opacity="1" /><path clip-path="url(#clip400)" d="M2005.95 49.7694 Q1996.91 49.7694 1993.43 51.8354 Q1989.94 53.9013 1989.94 58.8839 Q1989.94 62.8538 1992.54 65.2034 Q1995.17 67.5124 1999.67 67.5124 Q2005.86 67.5124 2009.59 63.1374 Q2013.36 58.7219 2013.36 51.4303 L2013.36 49.7694 L2005.95 49.7694 M2020.81 46.6907 L2020.81 72.576 L2013.36 72.576 L2013.36 65.6895 Q2010.81 69.8214 2007 71.8063 Q2003.19 73.7508 1997.68 73.7508 Q1990.71 73.7508 1986.58 69.8619 Q1982.49 65.9325 1982.49 59.3701 Q1982.49 51.7138 1987.59 47.825 Q1992.74 43.9361 2002.91 43.9361 L2013.36 43.9361 L2013.36 43.2069 Q2013.36 38.0623 2009.96 35.2672 Q2006.59 32.4315 2000.48 32.4315 Q1996.59 32.4315 1992.9 33.3632 Q1989.22 34.295 1985.81 36.1584 L1985.81 29.2718 Q1989.9 27.692 1993.75 26.9223 Q1997.6 26.1121 2001.25 26.1121 Q2011.09 26.1121 2015.95 31.2163 Q2020.81 36.3204 2020.81 46.6907 Z" fill="#000000" fill-rule="nonzero" fill-opacity="1" /><path clip-path="url(#clip400)" d="M2099.12 14.0809 L2099.12 22.0612 Q2094.46 19.8332 2090.33 18.7395 Q2086.19 17.6457 2082.35 17.6457 Q2075.66 17.6457 2072.02 20.2383 Q2068.41 22.8309 2068.41 27.611 Q2068.41 31.6214 2070.8 33.6873 Q2073.23 35.7128 2079.96 36.9686 L2084.9 37.9813 Q2094.05 39.7232 2098.39 44.1387 Q2102.76 48.5136 2102.76 55.8863 Q2102.76 64.6767 2096.85 69.2137 Q2090.97 73.7508 2079.59 73.7508 Q2075.3 73.7508 2070.44 72.7785 Q2065.62 71.8063 2060.43 69.9024 L2060.43 61.4765 Q2065.41 64.2716 2070.19 65.6895 Q2074.97 67.1073 2079.59 67.1073 Q2086.6 67.1073 2090.41 64.3527 Q2094.21 61.598 2094.21 56.4939 Q2094.21 52.0379 2091.46 49.5264 Q2088.75 47.0148 2082.51 45.759 L2077.53 44.7868 Q2068.37 42.9639 2064.28 39.075 Q2060.19 35.1862 2060.19 28.2591 Q2060.19 20.2383 2065.82 15.6203 Q2071.49 11.0023 2081.41 11.0023 Q2085.67 11.0023 2090.08 11.7719 Q2094.5 12.5416 2099.12 14.0809 Z" fill="#000000" fill-rule="nonzero" fill-opacity="1" /><path clip-path="url(#clip400)" d="M2131.12 72.576 L2108.03 12.096 L2116.58 12.096 L2135.74 63.0159 L2154.94 12.096 L2163.44 12.096 L2140.4 72.576 L2131.12 72.576 Z" fill="#000000" fill-rule="nonzero" fill-opacity="1" /><path clip-path="url(#clip400)" d="M2180.46 18.8205 L2180.46 65.8515 L2190.34 65.8515 Q2202.86 65.8515 2208.65 60.1802 Q2214.49 54.509 2214.49 42.2752 Q2214.49 30.1225 2208.65 24.4918 Q2202.86 18.8205 2190.34 18.8205 L2180.46 18.8205 M2172.28 12.096 L2189.09 12.096 Q2206.67 12.096 2214.89 19.4281 Q2223.11 26.7198 2223.11 42.2752 Q2223.11 57.9117 2214.85 65.2439 Q2206.59 72.576 2189.09 72.576 L2172.28 72.576 L2172.28 12.096 Z" fill="#000000" fill-rule="nonzero" fill-opacity="1" /><polyline clip-path="url(#clip402)" style="stroke:#009af9; stroke-linecap:round; stroke-linejoin:round; stroke-width:8; stroke-opacity:1; fill:none" points="323.395,1363.29 815.958,1202.88 1308.52,962.277 1801.08,641.469 2293.65,160.256 "/>
<circle clip-path="url(#clip402)" cx="323.395" cy="1363.29" r="14.4" fill="#009af9" fill-rule="evenodd" fill-opacity="1" stroke="#000000" stroke-opacity="1" stroke-width="3.2"/>
<circle clip-path="url(#clip402)" cx="815.958" cy="1202.88" r="14.4" fill="#009af9" fill-rule="evenodd" fill-opacity="1" stroke="#000000" stroke-opacity="1" stroke-width="3.2"/>
<circle clip-path="url(#clip402)" cx="1308.52" cy="962.277" r="14.4" fill="#009af9" fill-rule="evenodd" fill-opacity="1" stroke="#000000" stroke-opacity="1" stroke-width="3.2"/>
<circle clip-path="url(#clip402)" cx="1801.08" cy="641.469" r="14.4" fill="#009af9" fill-rule="evenodd" fill-opacity="1" stroke="#000000" stroke-opacity="1" stroke-width="3.2"/>
<circle clip-path="url(#clip402)" cx="2293.65" cy="160.256" r="14.4" fill="#009af9" fill-rule="evenodd" fill-opacity="1" stroke="#000000" stroke-opacity="1" stroke-width="3.2"/>
<polyline clip-path="url(#clip402)" style="stroke:#e26f46; stroke-linecap:round; stroke-linejoin:round; stroke-width:8; stroke-opacity:1; fill:none" stroke-dasharray="32, 20" points="323.395,1386.4 815.958,1185.74 1308.52,933.398 1801.08,616.049 2293.65,216.948 "/>
<path clip-path="url(#clip400)" d="M333.903 322.316 L1138.77 322.316 L1138.77 166.796 L333.903 166.796  Z" fill="#ffffff" fill-rule="evenodd" fill-opacity="1"/>
<polyline clip-path="url(#clip400)" style="stroke:#000000; stroke-linecap:round; stroke-linejoin:round; stroke-width:4; stroke-opacity:1; fill:none" points="333.903,322.316 1138.77,322.316 1138.77,166.796 333.903,166.796 333.903,322.316 "/>
<polyline clip-path="url(#clip400)" style="stroke:#009af9; stroke-linecap:round; stroke-linejoin:round; stroke-width:8; stroke-opacity:1; fill:none" points="357.108,218.636 496.339,218.636 "/>
<circle clip-path="url(#clip400)" cx="426.724" cy="218.636" r="19.3377" fill="#009af9" fill-rule="evenodd" fill-opacity="1" stroke="#000000" stroke-opacity="1" stroke-width="4.55111"/>
<path clip-path="url(#clip400)" d="M524.22 205.198 L524.22 232.073 L529.869 232.073 Q537.021 232.073 540.332 228.832 Q543.665 225.592 543.665 218.601 Q543.665 211.657 540.332 208.439 Q537.021 205.198 529.869 205.198 L524.22 205.198 M519.545 201.356 L529.151 201.356 Q539.197 201.356 543.896 205.546 Q548.595 209.712 548.595 218.601 Q548.595 227.536 543.873 231.726 Q539.151 235.916 529.151 235.916 L519.545 235.916 L519.545 201.356 Z" fill="#000000" fill-rule="nonzero" fill-opacity="1" /><path clip-path="url(#clip400)" d="M567.646 222.883 Q562.484 222.883 560.493 224.064 Q558.503 225.244 558.503 228.092 Q558.503 230.36 559.984 231.703 Q561.489 233.022 564.058 233.022 Q567.6 233.022 569.73 230.522 Q571.882 227.999 571.882 223.832 L571.882 222.883 L567.646 222.883 M576.142 221.124 L576.142 235.916 L571.882 235.916 L571.882 231.981 Q570.424 234.342 568.248 235.476 Q566.072 236.587 562.924 236.587 Q558.943 236.587 556.581 234.365 Q554.243 232.119 554.243 228.369 Q554.243 223.994 557.16 221.772 Q560.1 219.55 565.91 219.55 L571.882 219.55 L571.882 219.133 Q571.882 216.194 569.938 214.596 Q568.017 212.976 564.521 212.976 Q562.299 212.976 560.193 213.508 Q558.086 214.041 556.142 215.106 L556.142 211.17 Q558.48 210.268 560.679 209.828 Q562.878 209.365 564.961 209.365 Q570.586 209.365 573.364 212.282 Q576.142 215.198 576.142 221.124 Z" fill="#000000" fill-rule="nonzero" fill-opacity="1" /><path clip-path="url(#clip400)" d="M601.975 213.925 L601.975 199.897 L606.234 199.897 L606.234 235.916 L601.975 235.916 L601.975 232.027 Q600.632 234.342 598.572 235.476 Q596.535 236.587 593.665 236.587 Q588.966 236.587 586.003 232.837 Q583.063 229.087 583.063 222.976 Q583.063 216.865 586.003 213.115 Q588.966 209.365 593.665 209.365 Q596.535 209.365 598.572 210.499 Q600.632 211.61 601.975 213.925 M587.461 222.976 Q587.461 227.675 589.382 230.36 Q591.327 233.022 594.706 233.022 Q598.086 233.022 600.03 230.36 Q601.975 227.675 601.975 222.976 Q601.975 218.277 600.03 215.615 Q598.086 212.93 594.706 212.93 Q591.327 212.93 589.382 215.615 Q587.461 218.277 587.461 222.976 Z" fill="#000000" fill-rule="nonzero" fill-opacity="1" /><path clip-path="url(#clip400)" d="M625.053 212.976 Q621.627 212.976 619.637 215.661 Q617.646 218.323 617.646 222.976 Q617.646 227.629 619.614 230.314 Q621.604 232.976 625.053 232.976 Q628.456 232.976 630.447 230.291 Q632.438 227.606 632.438 222.976 Q632.438 218.37 630.447 215.684 Q628.456 212.976 625.053 212.976 M625.053 209.365 Q630.609 209.365 633.78 212.976 Q636.951 216.587 636.951 222.976 Q636.951 229.342 633.78 232.976 Q630.609 236.587 625.053 236.587 Q619.475 236.587 616.303 232.976 Q613.155 229.342 613.155 222.976 Q613.155 216.587 616.303 212.976 Q619.475 209.365 625.053 209.365 Z" fill="#000000" fill-rule="nonzero" fill-opacity="1" /><path clip-path="url(#clip400)" d="M660.539 210.754 L660.539 214.782 Q658.734 213.856 656.789 213.393 Q654.845 212.93 652.761 212.93 Q649.59 212.93 647.993 213.902 Q646.419 214.874 646.419 216.819 Q646.419 218.3 647.553 219.157 Q648.687 219.99 652.113 220.754 L653.572 221.078 Q658.109 222.05 660.007 223.832 Q661.928 225.592 661.928 228.763 Q661.928 232.374 659.058 234.481 Q656.211 236.587 651.211 236.587 Q649.127 236.587 646.859 236.17 Q644.613 235.777 642.113 234.967 L642.113 230.569 Q644.474 231.795 646.766 232.42 Q649.058 233.022 651.303 233.022 Q654.312 233.022 655.933 232.004 Q657.553 230.962 657.553 229.087 Q657.553 227.351 656.373 226.425 Q655.215 225.499 651.257 224.643 L649.775 224.295 Q645.817 223.462 644.058 221.749 Q642.299 220.013 642.299 217.004 Q642.299 213.346 644.891 211.356 Q647.484 209.365 652.252 209.365 Q654.613 209.365 656.697 209.712 Q658.78 210.059 660.539 210.754 Z" fill="#000000" fill-rule="nonzero" fill-opacity="1" /><path clip-path="url(#clip400)" d="M698.803 213.971 Q698.085 213.555 697.229 213.37 Q696.395 213.161 695.377 213.161 Q691.766 213.161 689.821 215.522 Q687.9 217.86 687.9 222.258 L687.9 235.916 L683.618 235.916 L683.618 209.99 L687.9 209.99 L687.9 214.018 Q689.243 211.657 691.396 210.522 Q693.548 209.365 696.627 209.365 Q697.067 209.365 697.599 209.434 Q698.132 209.481 698.78 209.596 L698.803 213.971 Z" fill="#000000" fill-rule="nonzero" fill-opacity="1" /><path clip-path="url(#clip400)" d="M724.405 221.888 L724.405 223.971 L704.821 223.971 Q705.099 228.369 707.46 230.684 Q709.845 232.976 714.081 232.976 Q716.534 232.976 718.826 232.374 Q721.141 231.772 723.409 230.569 L723.409 234.596 Q721.118 235.568 718.71 236.078 Q716.303 236.587 713.826 236.587 Q707.622 236.587 703.988 232.976 Q700.377 229.365 700.377 223.207 Q700.377 216.842 703.803 213.115 Q707.252 209.365 713.085 209.365 Q718.317 209.365 721.349 212.745 Q724.405 216.101 724.405 221.888 M720.145 220.638 Q720.099 217.143 718.178 215.059 Q716.28 212.976 713.132 212.976 Q709.567 212.976 707.414 214.99 Q705.284 217.004 704.96 220.661 L720.145 220.638 Z" fill="#000000" fill-rule="nonzero" fill-opacity="1" /><path clip-path="url(#clip400)" d="M743.178 222.883 Q738.016 222.883 736.025 224.064 Q734.034 225.244 734.034 228.092 Q734.034 230.36 735.516 231.703 Q737.02 233.022 739.59 233.022 Q743.131 233.022 745.261 230.522 Q747.414 227.999 747.414 223.832 L747.414 222.883 L743.178 222.883 M751.673 221.124 L751.673 235.916 L747.414 235.916 L747.414 231.981 Q745.955 234.342 743.78 235.476 Q741.604 236.587 738.455 236.587 Q734.474 236.587 732.113 234.365 Q729.775 232.119 729.775 228.369 Q729.775 223.994 732.692 221.772 Q735.631 219.55 741.442 219.55 L747.414 219.55 L747.414 219.133 Q747.414 216.194 745.469 214.596 Q743.548 212.976 740.053 212.976 Q737.83 212.976 735.724 213.508 Q733.618 214.041 731.673 215.106 L731.673 211.17 Q734.011 210.268 736.21 209.828 Q738.409 209.365 740.492 209.365 Q746.117 209.365 748.895 212.282 Q751.673 215.198 751.673 221.124 Z" fill="#000000" fill-rule="nonzero" fill-opacity="1" /><path clip-path="url(#clip400)" d="M760.446 209.99 L764.705 209.99 L764.705 235.916 L760.446 235.916 L760.446 209.99 M760.446 199.897 L764.705 199.897 L764.705 205.291 L760.446 205.291 L760.446 199.897 Z" fill="#000000" fill-rule="nonzero" fill-opacity="1" /><path clip-path="url(#clip400)" d="M790.145 210.754 L790.145 214.782 Q788.339 213.856 786.395 213.393 Q784.451 212.93 782.367 212.93 Q779.196 212.93 777.599 213.902 Q776.025 214.874 776.025 216.819 Q776.025 218.3 777.159 219.157 Q778.293 219.99 781.719 220.754 L783.177 221.078 Q787.714 222.05 789.613 223.832 Q791.534 225.592 791.534 228.763 Q791.534 232.374 788.664 234.481 Q785.816 236.587 780.816 236.587 Q778.733 236.587 776.465 236.17 Q774.219 235.777 771.719 234.967 L771.719 230.569 Q774.08 231.795 776.372 232.42 Q778.664 233.022 780.909 233.022 Q783.918 233.022 785.539 232.004 Q787.159 230.962 787.159 229.087 Q787.159 227.351 785.978 226.425 Q784.821 225.499 780.863 224.643 L779.381 224.295 Q775.423 223.462 773.664 221.749 Q771.904 220.013 771.904 217.004 Q771.904 213.346 774.497 211.356 Q777.09 209.365 781.858 209.365 Q784.219 209.365 786.302 209.712 Q788.386 210.059 790.145 210.754 Z" fill="#000000" fill-rule="nonzero" fill-opacity="1" /><polyline clip-path="url(#clip400)" style="stroke:#e26f46; stroke-linecap:round; stroke-linejoin:round; stroke-width:8; stroke-opacity:1; fill:none" stroke-dasharray="32, 20" points="357.108,270.476 496.339,270.476 "/>
<path clip-path="url(#clip400)" d="M535.378 257.802 L529.035 275.001 L541.744 275.001 L535.378 257.802 M532.739 253.196 L538.04 253.196 L551.211 287.756 L546.35 287.756 L543.202 278.89 L527.623 278.89 L524.475 287.756 L519.545 287.756 L532.739 253.196 Z" fill="#000000" fill-rule="nonzero" fill-opacity="1" /><path clip-path="url(#clip400)" d="M556.072 261.83 L560.331 261.83 L560.331 288.219 Q560.331 293.172 558.433 295.395 Q556.558 297.617 552.368 297.617 L550.748 297.617 L550.748 294.006 L551.882 294.006 Q554.313 294.006 555.193 292.871 Q556.072 291.76 556.072 288.219 L556.072 261.83 M556.072 251.737 L560.331 251.737 L560.331 257.131 L556.072 257.131 L556.072 251.737 Z" fill="#000000" fill-rule="nonzero" fill-opacity="1" /><path clip-path="url(#clip400)" d="M568.804 277.524 L568.804 261.83 L573.063 261.83 L573.063 277.362 Q573.063 281.043 574.498 282.895 Q575.933 284.723 578.804 284.723 Q582.253 284.723 584.243 282.524 Q586.257 280.325 586.257 276.529 L586.257 261.83 L590.516 261.83 L590.516 287.756 L586.257 287.756 L586.257 283.774 Q584.706 286.135 582.646 287.293 Q580.609 288.427 577.901 288.427 Q573.433 288.427 571.118 285.649 Q568.804 282.871 568.804 277.524 M579.521 261.205 L579.521 261.205 Z" fill="#000000" fill-rule="nonzero" fill-opacity="1" /><path clip-path="url(#clip400)" d="M615.817 262.594 L615.817 266.622 Q614.012 265.696 612.067 265.233 Q610.123 264.77 608.039 264.77 Q604.868 264.77 603.271 265.742 Q601.697 266.714 601.697 268.659 Q601.697 270.14 602.831 270.997 Q603.965 271.83 607.391 272.594 L608.85 272.918 Q613.387 273.89 615.285 275.672 Q617.206 277.432 617.206 280.603 Q617.206 284.214 614.336 286.321 Q611.489 288.427 606.489 288.427 Q604.405 288.427 602.137 288.01 Q599.891 287.617 597.391 286.807 L597.391 282.409 Q599.752 283.635 602.044 284.26 Q604.336 284.862 606.581 284.862 Q609.59 284.862 611.211 283.844 Q612.831 282.802 612.831 280.927 Q612.831 279.191 611.651 278.265 Q610.493 277.339 606.535 276.483 L605.053 276.135 Q601.095 275.302 599.336 273.589 Q597.577 271.853 597.577 268.844 Q597.577 265.186 600.169 263.196 Q602.762 261.205 607.53 261.205 Q609.891 261.205 611.975 261.552 Q614.058 261.899 615.817 262.594 Z" fill="#000000" fill-rule="nonzero" fill-opacity="1" /><path clip-path="url(#clip400)" d="M628.201 254.469 L628.201 261.83 L636.975 261.83 L636.975 265.14 L628.201 265.14 L628.201 279.214 Q628.201 282.385 629.058 283.288 Q629.938 284.191 632.6 284.191 L636.975 284.191 L636.975 287.756 L632.6 287.756 Q627.669 287.756 625.794 285.927 Q623.919 284.075 623.919 279.214 L623.919 265.14 L620.794 265.14 L620.794 261.83 L623.919 261.83 L623.919 254.469 L628.201 254.469 Z" fill="#000000" fill-rule="nonzero" fill-opacity="1" /><path clip-path="url(#clip400)" d="M664.752 273.728 L664.752 275.811 L645.169 275.811 Q645.447 280.209 647.808 282.524 Q650.192 284.816 654.428 284.816 Q656.882 284.816 659.173 284.214 Q661.488 283.612 663.757 282.409 L663.757 286.436 Q661.465 287.408 659.058 287.918 Q656.65 288.427 654.174 288.427 Q647.97 288.427 644.336 284.816 Q640.725 281.205 640.725 275.047 Q640.725 268.682 644.15 264.955 Q647.599 261.205 653.433 261.205 Q658.664 261.205 661.697 264.585 Q664.752 267.941 664.752 273.728 M660.493 272.478 Q660.447 268.983 658.525 266.899 Q656.627 264.816 653.479 264.816 Q649.914 264.816 647.762 266.83 Q645.632 268.844 645.308 272.501 L660.493 272.478 Z" fill="#000000" fill-rule="nonzero" fill-opacity="1" /><path clip-path="url(#clip400)" d="M708.988 273.728 L708.988 275.811 L689.405 275.811 Q689.683 280.209 692.044 282.524 Q694.428 284.816 698.664 284.816 Q701.118 284.816 703.409 284.214 Q705.724 283.612 707.993 282.409 L707.993 286.436 Q705.701 287.408 703.294 287.918 Q700.886 288.427 698.409 288.427 Q692.206 288.427 688.571 284.816 Q684.96 281.205 684.96 275.047 Q684.96 268.682 688.386 264.955 Q691.835 261.205 697.669 261.205 Q702.9 261.205 705.932 264.585 Q708.988 267.941 708.988 273.728 M704.729 272.478 Q704.682 268.983 702.761 266.899 Q700.863 264.816 697.715 264.816 Q694.15 264.816 691.997 266.83 Q689.868 268.844 689.544 272.501 L704.729 272.478 Z" fill="#000000" fill-rule="nonzero" fill-opacity="1" /><path clip-path="url(#clip400)" d="M736.696 261.83 L727.321 274.446 L737.182 287.756 L732.159 287.756 L724.613 277.571 L717.067 287.756 L712.044 287.756 L722.113 274.191 L712.9 261.83 L717.923 261.83 L724.798 271.066 L731.673 261.83 L736.696 261.83 Z" fill="#000000" fill-rule="nonzero" fill-opacity="1" /><path clip-path="url(#clip400)" d="M747.321 283.867 L747.321 297.617 L743.039 297.617 L743.039 261.83 L747.321 261.83 L747.321 265.765 Q748.664 263.45 750.701 262.339 Q752.761 261.205 755.608 261.205 Q760.33 261.205 763.27 264.955 Q766.233 268.705 766.233 274.816 Q766.233 280.927 763.27 284.677 Q760.33 288.427 755.608 288.427 Q752.761 288.427 750.701 287.316 Q748.664 286.182 747.321 283.867 M761.812 274.816 Q761.812 270.117 759.867 267.455 Q757.946 264.77 754.566 264.77 Q751.187 264.77 749.242 267.455 Q747.321 270.117 747.321 274.816 Q747.321 279.515 749.242 282.2 Q751.187 284.862 754.566 284.862 Q757.946 284.862 759.867 282.2 Q761.812 279.515 761.812 274.816 Z" fill="#000000" fill-rule="nonzero" fill-opacity="1" /><path clip-path="url(#clip400)" d="M783.339 264.816 Q779.914 264.816 777.923 267.501 Q775.932 270.163 775.932 274.816 Q775.932 279.469 777.9 282.154 Q779.89 284.816 783.339 284.816 Q786.742 284.816 788.733 282.131 Q790.724 279.446 790.724 274.816 Q790.724 270.21 788.733 267.524 Q786.742 264.816 783.339 264.816 M783.339 261.205 Q788.895 261.205 792.066 264.816 Q795.238 268.427 795.238 274.816 Q795.238 281.182 792.066 284.816 Q788.895 288.427 783.339 288.427 Q777.761 288.427 774.59 284.816 Q771.441 281.182 771.441 274.816 Q771.441 268.427 774.59 264.816 Q777.761 261.205 783.339 261.205 Z" fill="#000000" fill-rule="nonzero" fill-opacity="1" /><path clip-path="url(#clip400)" d="M823.849 272.108 L823.849 287.756 L819.589 287.756 L819.589 272.247 Q819.589 268.566 818.154 266.737 Q816.719 264.909 813.849 264.909 Q810.4 264.909 808.409 267.108 Q806.418 269.307 806.418 273.103 L806.418 287.756 L802.136 287.756 L802.136 261.83 L806.418 261.83 L806.418 265.858 Q807.946 263.52 810.006 262.362 Q812.089 261.205 814.798 261.205 Q819.265 261.205 821.557 263.983 Q823.849 266.737 823.849 272.108 Z" fill="#000000" fill-rule="nonzero" fill-opacity="1" /><path clip-path="url(#clip400)" d="M854.52 273.728 L854.52 275.811 L834.936 275.811 Q835.214 280.209 837.575 282.524 Q839.96 284.816 844.196 284.816 Q846.649 284.816 848.941 284.214 Q851.256 283.612 853.524 282.409 L853.524 286.436 Q851.233 287.408 848.825 287.918 Q846.418 288.427 843.941 288.427 Q837.737 288.427 834.103 284.816 Q830.492 281.205 830.492 275.047 Q830.492 268.682 833.918 264.955 Q837.367 261.205 843.2 261.205 Q848.432 261.205 851.464 264.585 Q854.52 267.941 854.52 273.728 M850.26 272.478 Q850.214 268.983 848.293 266.899 Q846.395 264.816 843.247 264.816 Q839.682 264.816 837.529 266.83 Q835.399 268.844 835.075 272.501 L850.26 272.478 Z" fill="#000000" fill-rule="nonzero" fill-opacity="1" /><path clip-path="url(#clip400)" d="M883.061 272.108 L883.061 287.756 L878.802 287.756 L878.802 272.247 Q878.802 268.566 877.367 266.737 Q875.932 264.909 873.061 264.909 Q869.612 264.909 867.621 267.108 Q865.631 269.307 865.631 273.103 L865.631 287.756 L861.348 287.756 L861.348 261.83 L865.631 261.83 L865.631 265.858 Q867.158 263.52 869.219 262.362 Q871.302 261.205 874.01 261.205 Q878.478 261.205 880.77 263.983 Q883.061 266.737 883.061 272.108 Z" fill="#000000" fill-rule="nonzero" fill-opacity="1" /><path clip-path="url(#clip400)" d="M910.214 262.825 L910.214 266.807 Q908.408 265.811 906.58 265.325 Q904.774 264.816 902.922 264.816 Q898.779 264.816 896.487 267.455 Q894.195 270.071 894.195 274.816 Q894.195 279.561 896.487 282.2 Q898.779 284.816 902.922 284.816 Q904.774 284.816 906.58 284.33 Q908.408 283.821 910.214 282.825 L910.214 286.76 Q908.431 287.594 906.51 288.01 Q904.612 288.427 902.459 288.427 Q896.603 288.427 893.154 284.746 Q889.705 281.066 889.705 274.816 Q889.705 268.473 893.177 264.839 Q896.672 261.205 902.737 261.205 Q904.705 261.205 906.58 261.622 Q908.455 262.015 910.214 262.825 Z" fill="#000000" fill-rule="nonzero" fill-opacity="1" /><path clip-path="url(#clip400)" d="M917.621 261.83 L921.88 261.83 L921.88 287.756 L917.621 287.756 L917.621 261.83 M917.621 251.737 L921.88 251.737 L921.88 257.131 L917.621 257.131 L917.621 251.737 Z" fill="#000000" fill-rule="nonzero" fill-opacity="1" /><path clip-path="url(#clip400)" d="M942.575 274.723 Q937.413 274.723 935.422 275.904 Q933.431 277.084 933.431 279.932 Q933.431 282.2 934.913 283.543 Q936.417 284.862 938.987 284.862 Q942.528 284.862 944.658 282.362 Q946.811 279.839 946.811 275.672 L946.811 274.723 L942.575 274.723 M951.07 272.964 L951.07 287.756 L946.811 287.756 L946.811 283.821 Q945.352 286.182 943.177 287.316 Q941.001 288.427 937.853 288.427 Q933.871 288.427 931.51 286.205 Q929.172 283.959 929.172 280.209 Q929.172 275.834 932.089 273.612 Q935.028 271.39 940.839 271.39 L946.811 271.39 L946.811 270.973 Q946.811 268.034 944.866 266.436 Q942.945 264.816 939.45 264.816 Q937.228 264.816 935.121 265.348 Q933.015 265.881 931.07 266.946 L931.07 263.01 Q933.408 262.108 935.607 261.668 Q937.806 261.205 939.89 261.205 Q945.515 261.205 948.292 264.122 Q951.07 267.038 951.07 272.964 Z" fill="#000000" fill-rule="nonzero" fill-opacity="1" /><path clip-path="url(#clip400)" d="M959.843 251.737 L964.102 251.737 L964.102 287.756 L959.843 287.756 L959.843 251.737 Z" fill="#000000" fill-rule="nonzero" fill-opacity="1" /><path clip-path="url(#clip400)" d="M998.315 251.784 Q995.213 257.108 993.709 262.316 Q992.204 267.524 992.204 272.872 Q992.204 278.219 993.709 283.473 Q995.236 288.705 998.315 294.006 L994.611 294.006 Q991.139 288.566 989.403 283.311 Q987.69 278.057 987.69 272.872 Q987.69 267.71 989.403 262.478 Q991.116 257.247 994.611 251.784 L998.315 251.784 Z" fill="#000000" fill-rule="nonzero" fill-opacity="1" /><path clip-path="url(#clip400)" d="M1027.48 254.33 L1027.48 258.89 Q1024.82 257.617 1022.46 256.992 Q1020.1 256.367 1017.9 256.367 Q1014.08 256.367 1012 257.848 Q1009.94 259.33 1009.94 262.061 Q1009.94 264.353 1011.3 265.534 Q1012.69 266.691 1016.53 267.409 L1019.36 267.987 Q1024.59 268.983 1027.07 271.506 Q1029.57 274.006 1029.57 278.219 Q1029.57 283.242 1026.19 285.834 Q1022.83 288.427 1016.32 288.427 Q1013.87 288.427 1011.09 287.871 Q1008.34 287.316 1005.38 286.228 L1005.38 281.413 Q1008.22 283.01 1010.95 283.821 Q1013.69 284.631 1016.32 284.631 Q1020.33 284.631 1022.5 283.057 Q1024.68 281.483 1024.68 278.566 Q1024.68 276.02 1023.11 274.584 Q1021.56 273.149 1017.99 272.432 L1015.14 271.876 Q1009.91 270.835 1007.57 268.612 Q1005.24 266.39 1005.24 262.432 Q1005.24 257.848 1008.45 255.21 Q1011.69 252.571 1017.37 252.571 Q1019.8 252.571 1022.32 253.011 Q1024.84 253.45 1027.48 254.33 Z" fill="#000000" fill-rule="nonzero" fill-opacity="1" /><path clip-path="url(#clip400)" d="M1045.77 287.756 L1032.57 253.196 L1037.46 253.196 L1048.41 282.293 L1059.38 253.196 L1064.24 253.196 L1051.07 287.756 L1045.77 287.756 Z" fill="#000000" fill-rule="nonzero" fill-opacity="1" /><path clip-path="url(#clip400)" d="M1073.96 257.038 L1073.96 283.913 L1079.61 283.913 Q1086.76 283.913 1090.07 280.672 Q1093.41 277.432 1093.41 270.441 Q1093.41 263.497 1090.07 260.279 Q1086.76 257.038 1079.61 257.038 L1073.96 257.038 M1069.29 253.196 L1078.89 253.196 Q1088.94 253.196 1093.64 257.386 Q1098.34 261.552 1098.34 270.441 Q1098.34 279.376 1093.62 283.566 Q1088.89 287.756 1078.89 287.756 L1069.29 287.756 L1069.29 253.196 Z" fill="#000000" fill-rule="nonzero" fill-opacity="1" /><path clip-path="url(#clip400)" d="M1104.93 251.784 L1108.64 251.784 Q1112.11 257.247 1113.82 262.478 Q1115.56 267.71 1115.56 272.872 Q1115.56 278.057 1113.82 283.311 Q1112.11 288.566 1108.64 294.006 L1104.93 294.006 Q1108.01 288.705 1109.52 283.473 Q1111.05 278.219 1111.05 272.872 Q1111.05 267.524 1109.52 262.316 Q1108.01 257.108 1104.93 251.784 Z" fill="#000000" fill-rule="nonzero" fill-opacity="1" /></svg>
